<?xml version="1.0" standalone="no"?>
<!DOCTYPE svg PUBLIC "-//W3C//DTD SVG 1.1//EN" "http://www.w3.org/Graphics/SVG/1.1/DTD/svg11.dtd" >
<svg>
<metadata>
Created by FontForge 20090914 at Fri Dec 14 13:40:54 2012
 By www-data
Generated by Fontographer 4.1J
</metadata>
<defs>
<font id="Vanilla" horiz-adv-x="687" >
  <font-face 
    font-family="Vanilla"
    font-weight="400"
    font-stretch="normal"
    units-per-em="1000"
    panose-1="0 0 4 0 0 0 0 0 0 0"
    ascent="800"
    descent="-200"
    x-height="619.001"
    cap-height="800"
    bbox="-5.01889 -217 1044 834.001"
    underline-thickness="20"
    underline-position="-123"
    unicode-range="U+0020-U+F000"
  />
<missing-glyph horiz-adv-x="500" 
d="M63 0v834h375v-834h-375zM125 63h250v709h-250v-709z" />
    <glyph glyph-name=".notdef" horiz-adv-x="500" 
d="M63 0v834h375v-834h-375zM125 63h250v709h-250v-709z" />
    <glyph glyph-name="space" unicode=" " horiz-adv-x="338" 
 />
    <glyph glyph-name="exclam" unicode="!" horiz-adv-x="369" 
d="M283 662c-3.33301 26.667 -13.665 57.667 -30.998 93c-15.333 31.333 -43 46.333 -83 45c-62.667 -2 -94 -50.667 -94 -146c0 -12.667 0.666992 -27 2 -43c12.667 -154.667 19 -281.667 19 -381c0 -34 8 -64.667 24 -92c19.333 -32 44.666 -48 75.999 -48
c39.333 0 66.333 54.667 81 164c8 58 11.667 126.667 11 206c-0.666992 112.667 -2.33398 180 -5.00098 202zM230.001 -200c31.333 2.66699 56 35.667 74 99c4 14 6 27.667 6 41c0 42 -22.333 71.333 -67 88c-14 5.33301 -26.333 8 -37 8c-40.667 0 -72.667 -29 -96 -87
c-8.66699 -22 -13 -41.667 -13 -59c0 -41.333 25 -70.333 75 -87c4.66699 -4.66699 24 -5.66699 58 -3z" />
    <glyph glyph-name="quotedbl" unicode="&#x22;" horiz-adv-x="415" 
d="M181 783c-8.66699 11.333 -16.3311 17.667 -22.998 19h-50c-24.667 0 -38.334 -26.667 -41.001 -80c-0.666992 -13.333 -1 -26.666 -1 -39.999c0 -38.667 3 -76.334 9 -113.001c12 -28 24 -43 36 -45l23 -4c11.333 0 24.666 8.33301 39.999 25
c17.333 39.333 26 85 26 137c-0.666992 0.666992 -2.66699 17 -6 49c-2 22.667 -6.33301 40 -13 52zM369.003 739.001c-4 42 -26 63.001 -66 63.001c-12.667 0 -27.334 -2 -44.001 -6c-14 -22 -21 -51.333 -21 -88c0 -38.667 7 -82.334 21 -131.001
c6.66699 -24 24.334 -36 53.001 -36c50.667 0 69.667 66 57 198z" />
    <glyph glyph-name="numbersign" unicode="#" horiz-adv-x="507" 
d="M365 440c0 -14.667 -1.33301 -36.8311 -4 -66.498s-14.334 -44.5 -35.001 -44.5c-22.667 0 -37 11.667 -43 35c-0.666992 2.66699 -2.66699 23.334 -6 62.001c-12.667 -2 -30.334 -4 -53.001 -6l-4 -65c-6 -28.667 -22.667 -47 -50 -55c-13.333 -4 -23 2.66699 -29 20
c-9.33301 27.333 -13.333 59 -12 95c-16.667 2 -33.334 3.66699 -50.001 5c-18.667 4.66699 -28 15.667 -28 33c0 18.667 9.66699 32.667 29 42c1.33301 0.666992 19 5.66699 53 15v80h-7c-34 0 -55 7 -63 21c-0.666992 1.33301 -3 8.66602 -7 21.999
c-0.666992 3.33301 -1 5.66602 -1 6.99902c0 18.667 22 33.334 66 44.001c2.66699 0.666992 7.66699 1.66699 15 3c-3.33301 20.667 -5 38.667 -5 54c0 38 12 57 36 57c12.667 0 25.334 -7.33301 38.001 -22c8 -10 12.333 -19 13 -27c1.33301 -14 2 -28.667 2 -44
c14 3.33301 35.333 7.66602 64 12.999c0 54 0.333008 82.667 1 86c4 20 15.333 30 34 30c2 0 4.33301 -0.333008 7 -1h8c30 -15.333 46 -50.333 48 -105h17c16.667 0 31.667 -3 45 -9c17.333 -7.33301 26 -18.333 26 -33c0 -10.667 -12.667 -25.667 -38 -45
c-19.333 -4 -36.666 -9.33301 -51.999 -16l-9 -78h17c22.667 0 44.334 -2 65.001 -6c15.333 -2.66699 23 -15.334 23 -38.001c0 -11.333 -7 -21 -21 -29c-26 -14 -56 -25.333 -90 -34zM230 603.003l3.00098 -74c10 2 25.333 4.33301 46 7c0 16 0.333008 40.333 1 73
c-14.667 -0.666992 -31.334 -2.66699 -50.001 -6z" />
    <glyph glyph-name="dollar" unicode="$" horiz-adv-x="824" 
d="M452 388c18.667 -1.33301 40.3301 -4.33496 64.9971 -9.00195c92 -18 156 -39.333 192 -64c54.667 -37.333 82 -96 82 -176c0 -69.333 -27.667 -123.666 -83 -162.999c-32 -23.333 -75 -44 -129 -62c-57.333 -20 -103.666 -28.667 -138.999 -26
c0.666992 -5.33301 1 -10.666 1 -15.999c0 -55.333 -28 -83 -84 -83c-27.333 0 -46.333 8.66699 -57 26c-8.66699 12.667 -13.667 33.667 -15 63c-61.333 2.66699 -105 9 -131 19c-46.667 18 -70 51 -70 99c0 23.333 18 41 54 53c62 -8 106 -12 132 -12
c6.66699 0 12.334 0.333008 17.001 1c0.666992 6.66699 2.33398 34.667 5.00098 84c0 0.666992 1.66699 21.667 5 63c2 25.333 3 46 3 62c-38 2 -77 7.66699 -117 17c-52 12 -87 26.333 -105 43c-38.667 36 -58 76.333 -58 121c0 80 17.667 136 53 168
c61.333 55.333 136 87.333 224 96l20 75c12 28.667 30.333 43 55 43c26 0 47.333 -13.333 64 -40c14 -22 22.333 -47.333 25 -76c38 -1.33301 65.667 -3.33301 83 -6c30 -3.33301 57 -9.66602 81 -18.999c42.667 -16.667 64 -36.334 64 -59.001
c0 -34 -9.33301 -53.667 -28 -59c-27.333 -8 -59.333 -12 -96 -12c-32 0 -66.333 1.66699 -103 5c-2.66699 -31.333 -6 -83.333 -10 -156zM308.996 462.998c0 21.333 -1.66699 46.667 -5 76c-45.333 1.33301 -81.333 -8 -108 -28c-21.333 -15.333 -32 -33.333 -32 -54
c0 -38 31.333 -57 94 -57h28c4 0 8.66699 0.333008 14 1h8v12c0.666992 8 1 14.333 1 19v31zM443.996 251.999c-5.33301 -31.333 -8 -101 -8 -209c71.333 6 115 12.333 131 19c39.333 16.667 59 53 59 109c0 16 -12 31 -36 45c-37.333 22 -86 34 -146 36z" />
    <glyph glyph-name="percent" unicode="%" horiz-adv-x="999" 
d="M938 68c-3.33301 -12 -17.333 -34.3311 -42 -66.998c-16 -21.333 -33 -34 -51 -38c-10 -3.33301 -24 -8.33301 -42 -15c-24.667 -5.33301 -60 0.666992 -106 18s-75 36.666 -87 57.999c-20 35.333 -30 72.666 -30 111.999c0 30.667 11.667 68.667 35 114
c9.33301 18 31.666 38.333 66.999 61c11.333 7.33301 31.666 13.666 60.999 18.999c24 4.66699 52.333 1.66699 85 -9c30.667 -10 55.834 -23.167 75.501 -39.5s34.334 -40.833 44.001 -73.5s11.167 -61 4.5 -85c-2 -7.33301 -6.66699 -25.666 -14 -54.999zM318 227.002
c-31.333 -15.333 -57.332 -24.667 -77.999 -28c-25.333 -4 -54.166 0.833008 -86.499 14.5s-55.666 31.167 -69.999 52.5s-21.5 55 -21.5 101c0 57.333 12.333 102 37 134c3.33301 6 10.666 13.333 21.999 22c42.667 33.333 86 50 130 50
c59.333 0 107.666 -35.667 144.999 -107c10 -19.333 17 -42.666 21 -69.999c3.33301 -22.667 1.66602 -43.334 -5.00098 -62.001c-18 -50 -49.333 -85.667 -94 -107zM801.001 172.001c-2.66699 4.66699 -8.99902 8.33203 -18.999 10.999
c-26 3.33301 -45.333 -3.66699 -58 -21c-6.66699 -9.33301 -10 -19.666 -10 -30.999c0 -10 2.33301 -19.667 7 -29c2.66699 -8 7.33398 -14 14.001 -18c11.333 -4.66699 22.666 -7 33.999 -7c7.33301 -3.33301 16.666 0.666992 27.999 12s17.333 21.333 18 30
c0.666992 17.333 -4 35 -14 53zM287.002 383.999c-0.666992 2.66699 -1.00195 5.99805 -1.00195 9.99805c-2.66699 8.66699 -4.66699 14 -6 16c-3.33301 6.66699 -7.16602 11 -11.499 13s-10.166 4 -17.499 6c-4 2 -8.33301 3 -13 3c-10 0 -20.333 -4.16699 -31 -12.5
s-17.667 -17.166 -21 -26.499c-6 -19.333 -7.33301 -31.666 -4 -36.999c8 -20.667 24.333 -31 49 -31c8 0 15.667 0.666992 23 2c21.333 13.333 32 29.333 32 48c0.666992 3.33301 1 6.33301 1 9zM348 -195.003c-18 0 -34.333 4.66602 -49 13.999
c-17.333 10.667 -26 24.334 -26 41.001c0 30.667 15.667 85.667 47 165l66 164c20 56 41.667 110.667 65 164c20 44.667 43 99 69 163c2 5.33301 16 48 42 128c17.333 52 27.333 81 30 87c16.667 34 39.334 51 68.001 51c55.333 0 83 -32.333 83 -97
c0 -34 -23.667 -108 -71 -222c-35.333 -86 -69.333 -160.333 -102 -223c-4 -15.333 -9.66699 -34 -17 -56c-13.333 -28 -22 -50 -26 -66c-7.33301 -29.333 -21 -66.333 -41 -111c-22.667 -50.667 -38.334 -87.667 -47.001 -111c-9.33301 -26 -17 -44 -23 -54
c-12 -20 -26.333 -32.333 -43 -37h-25z" />
    <glyph glyph-name="ampersand" unicode="&#x26;" horiz-adv-x="850" 
d="M759 178c-12 -15.333 -31.666 -32.334 -58.999 -51.001c-34.667 -23.333 -56.334 -38.666 -65.001 -45.999l61 -47c52 -40.667 78 -76 78 -106c0 -14 -5.33301 -27.667 -16 -41c-16 -19.333 -31.333 -29 -46 -29c-24.667 0 -50.334 8 -77.001 24
c-7.33301 4.66699 -29.666 21 -66.999 49c-20.667 16 -38 32.667 -52 50c-40.667 -31.333 -92.334 -69 -155.001 -113c-20.667 -14.667 -53 -22 -97 -22c-37.333 0 -59.666 2.66699 -66.999 8l-38 12c-46.667 20.667 -76 46.334 -88 77.001c-8.66699 22 -13 38.667 -13 50
c0 24.667 0.666992 39.334 2 44.001s8.33301 15.834 21 33.501s26.667 36.167 42 55.5l133 130c-33.333 39.333 -61.666 81.333 -84.999 126c-29.333 56 -44 103.667 -44 143c0 36 14 67.333 42 94c24.667 23.333 55.834 40 93.501 50s81.167 15 130.5 15
c126 0 211.333 -33.333 256 -100c14.667 -22 22 -48.667 22 -80c0 -30.667 -13.667 -63.334 -41 -98.001c-16.667 -20.667 -45 -48.834 -85 -84.501s-68 -63.834 -84 -84.501l58 -57c25.333 15.333 47.666 31.333 66.999 48l61.5 54c27.667 24 48.5 36 62.5 36
c23.333 0 44.333 -6.66699 63 -20c1.33301 -2.66699 6.16602 -8.66699 14.499 -18s12.5 -15.666 12.5 -18.999c0 -20.667 -13.667 -48.334 -41 -83.001zM366.001 347.999c40 44.667 70.333 81.333 91 110c4 5.33301 6 19.333 6 42c0 15.333 -8.33301 25.333 -25 30
c-7.33301 2 -22.333 3 -45 3c-35.333 0 -60.333 -11.333 -75 -34c-2.66699 -4 -4 -13.667 -4 -29c0 -37.333 17.333 -78 52 -122zM336.001 140.998l-100 -108l-3 -8c3.33301 -12.667 7 -21 11 -25s12 -6 24 -6c7.33301 0 13 1.33301 17 4c24.667 16.667 61.667 44 111 82z
" />
    <glyph glyph-name="quotesingle" unicode="'" horiz-adv-x="232" 
d="M121 825c-36 -3.33301 -60.333 -29.999 -73 -79.999c-8.66699 -33.333 -11.334 -73.666 -8.00098 -120.999l2 -46c1.33301 -18.667 4 -33 8 -43c8 -6.66699 23.333 -11.334 46 -14.001c33.333 -4 61 29.667 83 101c16.667 52.667 25.667 101 27 145
c0.666992 5.33301 -0.666016 10.666 -3.99902 15.999c-19.333 31.333 -46.333 45.333 -81 42z" />
    <glyph glyph-name="parenleft" unicode="(" horiz-adv-x="432" 
d="M298 800c-21.333 0 -44.666 -6.33203 -69.999 -18.999c-52 -26 -98.667 -85.667 -140 -179c-29.333 -66.667 -44 -149.334 -44 -248.001c0 -36 2.33301 -76.667 7 -122c10 -98 33.667 -186.667 71 -266c51.333 -109.333 117.666 -164.666 198.999 -165.999
c50 -0.666992 77.333 13.666 82 42.999c4 28 3.33301 47.333 -2 58c-9.33301 26 -29 51 -59 75c-48.667 39.333 -82.334 81.666 -101.001 126.999c-15.333 36.667 -25.666 91 -30.999 163c-2.66699 34.667 -4 64.334 -4 89.001c0 60.667 6.33301 108 19 142
c18.667 50 55.667 102.667 111 158c32.667 32.667 49 60.667 49 84c0 18 -10.333 33 -31 45c-18 10.667 -36.667 16 -56 16z" />
    <glyph glyph-name="parenright" unicode=")" horiz-adv-x="435" 
d="M150 -200c23.333 0 47.332 6.00098 71.999 18.001c52 25.333 98.667 85 140 179c28.667 64.667 43 146.667 43 246c0 37.333 -2.33301 78.666 -7 123.999c-10 98.667 -33.667 187.667 -71 267c-51.333 110.667 -117.333 166 -198 166c-50.667 0 -78 -14 -82 -42
c-2 -14 -3 -26 -3 -36s1 -17.667 3 -23c12.667 -28.667 38 -60 76 -94c30 -27.333 50 -47 60 -59c29.333 -36 48.333 -106 57 -210c2.66699 -32 4 -62.333 4 -91c0 -58.667 -6.66699 -106 -20 -142c-19.333 -52.667 -56 -105.334 -110 -158.001
c-33.333 -32.667 -50 -60.667 -50 -84c0 -19.333 10 -34.666 30 -45.999c16.667 -10 35.334 -15 56.001 -15z" />
    <glyph glyph-name="asterisk" unicode="*" horiz-adv-x="803" 
d="M685 179c-29.333 -3.33301 -63.666 -4 -102.999 -2l77 -68c32 -29.333 52.333 -55.333 61 -78c8.66699 -23.333 6.16699 -45.333 -7.5 -66s-33.167 -31 -58.5 -31c-29.333 0 -66.333 21.667 -111 65l-144 137c-26.667 -51.333 -55 -98.333 -85 -141
c-48 -68 -84.667 -99 -110 -93c-31.333 7.33301 -53 18.333 -65 33c-15.333 15.333 -21.333 30 -18 44c2 7.33301 9.33301 22.333 22 45c7.33301 13.333 42.333 58.666 105 135.999c-6 0 -36 -1.33301 -90 -4c-72.667 -3.33301 -109 21.667 -109 75
c0 28.667 10.333 50 31 64c18.667 13.333 42.667 18.333 72 15c22.667 -2.66699 69.667 -6 141 -10c-20 20 -40 39 -60 57c-22.667 20.667 -46.334 48.667 -71.001 84c-29.333 42 -44 74.333 -44 97c0 18 7.66699 36 23 54c10.667 12 22 18 34 18
c12.667 0 27 -6.33301 43 -19c54 -43.333 117.667 -112.666 191 -207.999c46.667 80.667 94 149 142 205c18.667 21.333 38 32 58 32c8 0 15.333 -1.33301 22 -4c29.333 -11.333 44 -36.333 44 -75c0 -36 -15.333 -71.667 -46 -107
c-17.333 -19.333 -53.666 -63 -108.999 -131c72 8 113 12 123 12c39.333 0 65.666 -4.33301 78.999 -13c18 -12 26 -35.667 24 -71c-2 -30 -22.333 -47.333 -61 -52z" />
    <glyph glyph-name="plus" unicode="+" horiz-adv-x="777" 
d="M350 650c-19.333 -2 -32.6621 -6.32812 -39.9951 -12.9951c-11.333 -16 -17 -40.333 -17 -73c0 -23.333 0.666992 -44 2 -62c1.33301 -14 3.33301 -39.667 6 -77c1.33301 -24.667 0.666016 -43.334 -2.00098 -56.001c-74 -4 -119.333 -8 -136 -12
c-52.667 -12.667 -79.334 -41.334 -80.001 -86.001c-0.666992 -48.667 27 -75 83 -79c17.333 -1.33301 64 -3.66602 140 -6.99902c0 -4.66699 0.333008 -11.334 1 -20.001s1 -15.334 1 -20.001c0 -88.667 4.33301 -141.667 13 -159l13 -19
c-0.666992 0 6.16602 -2.66699 20.499 -8s25.166 -8.33301 32.499 -9c17.333 0 33 4.33301 47 13c20 18 32.333 41.667 37 71v44c0 20 -0.333008 33.667 -1 41v75c24 0.666992 68.333 3 133 7c49.333 3.33301 78.666 24.666 87.999 63.999c2.66699 11.333 4 21.333 4 30
c0 22.667 -7 41 -21 55c-20 20 -82.333 30 -187 30h-31v101c0 18 0.666992 51.333 2 100c0.666992 37.333 -11.666 59 -36.999 65c-30.667 7.33301 -54.334 8.66602 -71.001 3.99902z" />
    <glyph glyph-name="comma" unicode="," horiz-adv-x="264" 
d="M37 -217c26.667 0 61.335 12.665 104.002 37.998c34 20.667 56.333 48.334 67 83.001c4 13.333 6 25.333 6 36c0 35.333 -21 53 -63 53c-20 0 -34.833 -3 -44.5 -9s-16.5 -18 -20.5 -36s-16 -43 -36 -75c-16.667 -27.333 -28.334 -44.333 -35.001 -51
c0.666992 -5.33301 3.66699 -12.666 9 -21.999c5.33301 -11.333 9.66602 -17 12.999 -17z" />
    <glyph glyph-name="hyphen" unicode="-" horiz-adv-x="580" 
d="M518 241c3.33301 14 4.99902 26.001 4.99902 36.001c0 17.333 -4.66699 32 -14 44c-14 18 -60.667 28 -140 30c-84 2 -144.667 -0.333008 -182 -7c-87.333 -15.333 -131 -52.666 -131 -111.999c0 -40.667 29.333 -64 88 -70
c64.667 -6.66699 118.334 -7.33398 161.001 -2.00098c24 3.33301 68 9 132 17c45.333 5.33301 72.333 26.666 81 63.999z" />
    <glyph glyph-name="hyphen" unicode="&#x2010;" horiz-adv-x="580" 
d="M518 241c3.33301 14 4.99902 26.001 4.99902 36.001c0 17.333 -4.66699 32 -14 44c-14 18 -60.667 28 -140 30c-84 2 -144.667 -0.333008 -182 -7c-87.333 -15.333 -131 -52.666 -131 -111.999c0 -40.667 29.333 -64 88 -70
c64.667 -6.66699 118.334 -7.33398 161.001 -2.00098c24 3.33301 68 9 132 17c45.333 5.33301 72.333 26.666 81 63.999z" />
    <glyph glyph-name="period" unicode="." horiz-adv-x="228" 
d="M208 -84c-4.66699 54 -23.667 80.999 -57 80.999c-20.667 0 -40.5 -6.66699 -59.5 -20s-31.833 -29.666 -38.5 -48.999c-4 -12 -6 -22.667 -6 -32c0 -20 7 -37.667 21 -53c9.33301 -4 16.333 -8 21 -12c0 -0.666992 0.333008 -1.66699 1 -3v-2c4 -4 10.333 -7 19 -9
c23.333 -5.33301 43.333 -3 60 7c30 18 43 48.667 39 92z" />
    <glyph glyph-name="slash" unicode="/" horiz-adv-x="465" 
d="M116 153l-42.0039 -145.002c-18 -67.333 -27 -116.333 -27 -147c0 -46.667 18.667 -70 56 -70c8.66699 0 16.667 3 24 9c12.667 10 25 24.5 37 43.5s19.333 35.833 22 50.5c4.66699 28 19.334 78 44.001 150c26.667 76.667 43.334 130.334 50.001 161.001
c23.333 104 57 224.667 101 362c22.667 70.667 34 125 34 163c0 36.667 -11 58.334 -33 65.001c-11.333 3.33301 -20.666 5 -27.999 5c-27.333 0 -47 -14 -59 -42c-27.333 -62.667 -48.666 -121.667 -63.999 -177z" />
    <glyph glyph-name="zero" unicode="0" 
d="M141 702c-58 -76.667 -86.998 -189.667 -86.998 -339c0 -67.333 4.66699 -137.333 14 -210c11.333 -90 32 -161.667 62 -215c38.667 -68.667 95.667 -112.667 171 -132c16 -4 33 -6 51 -6c45.333 0 93.666 13.333 144.999 40c71.333 37.333 116.666 144 135.999 320
c6 54.667 9 107 9 157c0 104 -14 191.667 -42 263c-33.333 84.667 -68 142 -104 172c-44 36.667 -107 52.667 -189 48c-64 -3.33301 -119.333 -36 -166 -98zM216.002 335c-3.33301 145.333 23.667 231.667 81 259c44 4.66699 74.333 0.666992 91 -12
c26.667 -20 48 -77.667 64 -173c12 -74.667 18 -139 18 -193c0 -55.333 -7.66699 -104.666 -23 -147.999c-21.333 -62.667 -55.333 -92.334 -102 -89.001c-80.667 5.33301 -123.667 124 -129 356z" />
    <glyph glyph-name="one" unicode="1" horiz-adv-x="568" 
d="M55 630c-14 -18.667 -20.9961 -36.334 -20.9961 -53.001c0 -17.333 7.66699 -32.666 23 -45.999s31.666 -20 48.999 -20c40.667 0 80.667 27 120 81c6.66699 -182.667 9.66699 -333.667 9 -453c-0.666992 -112.667 -2.33398 -178.667 -5.00098 -198
c-12 0.666992 -23 1 -33 1c-46.667 0 -76.334 -11.333 -89.001 -34c-8.66699 -16 -13 -30.667 -13 -44c0 -35.333 22.667 -54.333 68 -57c118 -6.66699 207.667 -9 269 -7c56 2 92.333 15 109 39c0.666992 2 2 5.33301 4 10c7.33301 20 5.66602 41.167 -5.00098 63.5
s-26.667 33.833 -48 34.5c-29.333 0.666992 -55.666 0.666992 -78.999 0c7.33301 44.667 11 128.334 11 251.001v343c0 113.333 -10 185.666 -30 216.999c-18 28 -42.667 42 -74 42c-46 0 -95.667 -18.667 -149 -56c-44.667 -32 -83.334 -70 -116.001 -114z" />
    <glyph glyph-name="two" unicode="2" horiz-adv-x="736" 
d="M30 482c-6.66699 -78 12.667 -131.667 58 -161c15.333 -10 35.666 -14.667 60.999 -14c20.667 0.666992 38 10.334 52 29.001c12.667 16.667 19 35.667 19 57c-0.666992 4.66699 -0.666992 21.667 0 51c4 112 38 173.667 102 185c11.333 2 23.666 3 36.999 3
c84.667 0 128.667 -48.333 132 -145c2.66699 -64.667 -0.666016 -119.667 -9.99902 -165c-17.333 -88 -91.666 -161 -222.999 -219c-53.333 -23.333 -89.333 -43 -108 -59c-30 -26 -48 -61.333 -54 -106c-1.33301 -10 -2 -19.333 -2 -28c0 -30.667 7.33301 -56.667 22 -78
c11.333 -16 72.666 -26.333 183.999 -31c75.333 -2.66699 143.333 -3 204 -1c77.333 2.66699 113.333 28 108 76c-5.33301 47.333 -21.666 76.666 -48.999 87.999c-11.333 4.66699 -48.333 8.33398 -111 11.001c-35.333 2 -63 -0.333008 -83 -7c71.333 38 121 66.667 149 86
c52.667 36 97.334 91.667 134.001 167c34.667 71.333 53 140.333 55 207c4.66699 141.333 -36 246 -122 314c-34.667 27.333 -89.334 45.666 -164.001 54.999c-16 2 -32.667 3 -50 3c-56.667 0 -112 -14 -166 -42c-106 -55.333 -164.333 -147.333 -175 -276z" />
    <glyph glyph-name="three" unicode="3" horiz-adv-x="711" 
d="M658 561c-8 70 -26.999 123.336 -56.999 160.003c-34 40.667 -84.333 65.667 -151 75c-36 4.66699 -92 6 -168 4c-64.667 -2 -112.334 -7 -143.001 -15c-59.333 -16 -89.333 -46.333 -90 -91c-0.666992 -42.667 19.333 -70 60 -82
c22 -6.66699 60.333 -8.33398 115 -5.00098c61.333 3.33301 102.666 3.33301 123.999 0c18 -3.33301 39 -12 63 -26c27.333 -21.333 41 -49.333 41 -84c0 -8 -0.666992 -16.667 -2 -26c-4 -24 -31 -39.667 -81 -47c-51.333 -7.33301 -95.666 -7 -132.999 1
c-12.667 2.66699 -23.667 4 -33 4c-26.667 0 -49.667 -6 -69 -18c-23.333 -14 -35 -33.333 -35 -58c0 -11.333 2.33301 -24 7 -38c13.333 -40 50.666 -63.667 111.999 -71l150 -6c79.333 -9.33301 119 -42.666 119 -99.999c0 -16.667 -5.33301 -42.667 -16 -78
c-6.66699 -22 -29.667 -36 -69 -42c-17.333 -2.66699 -45.666 -3.33398 -84.999 -2.00098c-36 0.666992 -84 4.33398 -144 11.001c-6 1.33301 -11.667 2 -17 2c-40.667 0 -61 -28.667 -61 -86c0 -11.333 1 -24.333 3 -39c6.66699 -49.333 55.334 -81.333 146.001 -96
c44 -6.66699 109.667 -9.33398 197 -8.00098c74 1.33301 134 28 180 80c33.333 38 50 92.667 50 164c0 27.333 -2.66699 58.666 -8 93.999c-14.667 97.333 -44.334 157.333 -89.001 180c30 4.66699 53.333 28.667 70 72c12.667 33.333 19 68 19 104
c0 15.333 -1.66699 37.666 -5 66.999z" />
    <glyph glyph-name="four" unicode="4" horiz-adv-x="875" 
d="M254 385c3.33301 54.667 5 118.67 5 192.003c0 66 -3.33301 111.667 -10 137c-13.333 54 -43.333 82.667 -90 86c-29.333 2 -55.666 -6.66699 -78.999 -26c-18.667 -15.333 -28 -54.666 -28 -117.999c0 -16.667 0.666992 -35 2 -55
c7.33301 -108.667 10.666 -209.334 9.99902 -302.001l-1 -130c4 -42.667 19.333 -73.334 46 -92.001c21.333 -15.333 56 -25.333 104 -30c71.333 -7.33301 131 -8.33301 179 -3l9 -179c2 -41.333 27 -63 75 -65c30 -1.33301 50.333 11 61 37c7.33301 18 10 43.667 8 77
c-0.666992 11.333 -1 26.666 -1 45.999c0 49.333 7.16699 78.833 21.5 88.5s45.166 12.834 92.499 9.50098c54 -3.33301 91 -2.33301 111 3c38.667 10 62.667 36.333 72 79c3.33301 15.333 5 29.333 5 42c0 34 -14 52.667 -42 56c-42.667 4.66699 -84.334 6 -125.001 4
c-49.333 -2.66699 -89.666 -3.33398 -120.999 -2.00098c-5.33301 48.667 -5 117 1 205c6.66699 101.333 9.66699 170 9 206c-2 93.333 -35 136 -99 128c-63.333 -7.33301 -91.666 -78.333 -84.999 -213c6.66699 -140 8 -250 4 -330c-10 -3.33301 -35.333 -3.33301 -76 0
c-14.667 1.33301 -34 3.66602 -58 6.99902v17v125z" />
    <glyph glyph-name="five" unicode="5" horiz-adv-x="827" 
d="M385 800c-63.333 -1.33301 -117.001 -4.66504 -161.001 -9.99805l-103 -12c-10.667 0 -29.667 -3.33301 -57 -10c-10 -51.333 -15.667 -99 -17 -143c-2.66699 -71.333 -3.66699 -122.666 -3 -153.999c0.666992 -53.333 2 -94 4 -122c1.33301 -25.333 7.33301 -57 18 -95
c8 -28.667 31 -43 69 -43c15.333 0 31 1.66699 47 5l140 29c54 9.33301 101 14.666 141 15.999c42 1.33301 71.667 -1.33398 89 -8.00098c20.667 -7.33301 40 -29.333 58 -66c6 -12 9 -23.333 9 -34c0 -24.667 -12.667 -49.667 -38 -75
c-36.667 -36.667 -87 -58.334 -151 -65.001c-70 -7.33301 -117 -9.33301 -141 -6c-32.667 4 -62 5 -88 3c-27.333 -2.66699 -47 -20.667 -59 -54c-5.33301 -15.333 -8 -29 -8 -41c0 -14 3.33301 -26 10 -36c16.667 -20 50.667 -41 102 -63c34.667 -14.667 78 -22 130 -22
c28 0 57.667 2 89 6c88.667 11.333 164.5 49.666 227.5 114.999s97.833 142.333 104.5 231c6 82.667 -16.333 155.667 -67 219c-64.667 60 -142 90 -232 90c-19.333 0 -37.333 -1 -54 -3c-96 -11.333 -171 -26.333 -225 -45c0 26.667 2.33301 90.334 7 191.001
c24 6 65.333 11 124 15s102.667 9.66699 132 17c32.667 8 55.667 19.333 69 34s20 37.667 20 69c0 34.667 -22.667 55.667 -68 63c-25.333 4 -64.666 5.33301 -117.999 4z" />
    <glyph glyph-name="six" unicode="6" horiz-adv-x="751" 
d="M41 309c2.66699 -132.667 25.666 -240 68.999 -322c12 -22.667 24.667 -41.667 38 -57c58.667 -64.667 120.334 -105.667 185.001 -123c35.333 -9.33301 76.333 -11.666 123 -6.99902s96.334 22.667 149.001 54c79.333 47.333 119 122 119 224
c0 11.333 -0.666992 22.666 -2 33.999c-10 100 -69.667 169.333 -179 208c-26.667 9.33301 -54 14 -82 14c-41.333 0 -82 -10.333 -122 -31c-66 -34 -97 -69.333 -93 -106c-8 56.667 -12 107 -12 151c0 37.333 3.33301 70.333 10 99c22 95.333 65 157 129 185
c12 5.33301 26.667 8 44 8c16.667 0 37.667 -3.33301 63 -10c39.333 -10.667 59 -36 59 -76c0 -8 -1 -19.667 -3 -35s-3 -27 -3 -35c0 -30.667 8 -51 24 -61c23.333 -14.667 50 -20.667 80 -18s49 45.667 57 129c0.666992 7.33301 1 18 1 32c0 68 -22.667 121.333 -68 160
c-53.333 45.333 -114.333 70 -183 74c-56.667 3.33301 -105.667 -1 -147 -13c-44 -12.667 -86.667 -36.334 -128 -71.001c-44.667 -37.333 -78.667 -100.666 -102 -189.999c-18.667 -72.667 -27.334 -145 -26.001 -217zM535.999 115c10 -22 15 -42.333 15 -61
s-5.66699 -34 -17 -46c-28.667 -30.667 -61 -46 -97 -46c-53.333 0 -81.333 29 -84 87c-2 46.667 22.667 81 74 103c15.333 6.66699 30 10 44 10c29.333 0 51 -15.667 65 -47z" />
    <glyph glyph-name="seven" unicode="7" horiz-adv-x="787" 
d="M129 777c-34.667 -6.66699 -59.333 -37.667 -74 -93c-4.66699 -178 -5.66699 -297.333 -3 -358c1.33301 -38 5 -63.667 11 -77c8 -18 25 -36 51 -54c10 -6.66699 20.333 -10 31 -10c14 0 29 5.66699 45 17c24.667 17.333 39.667 51.333 45 102
c0.666992 40 1.66699 80 3 120c0.666992 20 2 49.667 4 89c3.33301 45.333 14.333 74.666 33 87.999c14.667 10.667 46.667 17.334 96 20.001c54.667 2.66699 107.667 0.333984 159 -6.99902c6.66699 -34.667 8.66699 -80.334 6 -137.001c-2 -42.667 -6 -112 -12 -208
c-2 -32.667 -10.333 -101 -25 -205c-12.667 -86 -18.334 -154 -17.001 -204c0.666992 -28 23.667 -48 69 -60c22.667 -6 42.334 -9 59.001 -9c18 0 34.667 3.66699 50 11c24 11.333 41.667 88 53 230c3.33301 58.667 9 146.667 17 264c8 110 8.66699 215 2 315
c-7.33301 110.667 -45.666 170 -114.999 178c-82 9.33301 -153 13 -213 11c-62.667 -2 -108.667 -4 -138 -6c-52.667 -3.33301 -98.334 -9 -137.001 -17z" />
    <glyph glyph-name="eight" unicode="8" 
d="M515 723c-48 54 -108.666 81.0029 -181.999 81.0029c-38.667 0 -81.334 -7.66699 -128.001 -23c-65.333 -21.333 -104.666 -58 -117.999 -110c-7.33301 -29.333 -9.66602 -60.333 -6.99902 -93c8.66699 -94 54.667 -157.333 138 -190
c-38 -21.333 -62.667 -36.333 -74 -45c-24 -18 -43 -39.667 -57 -65l-36 -75c-0.666992 -0.666992 -1 -1.66699 -1 -3c-10.667 -26 -16.334 -51.333 -17.001 -76c-3.33301 -24.667 -4.33301 -49.334 -3 -74.001c1.33301 -30.667 12.333 -63.334 33 -98.001
c2 -2.66699 5 -7 9 -13c23.333 -34.667 56.666 -63.334 99.999 -86.001c52 -27.333 102.333 -44 151 -50c11.333 -1.33301 27 -2.33301 47 -3c62 -2 110.667 9 146 33s67 60.667 95 110c11.333 20 19.333 45.667 24 77l8 63c3.33301 37.333 -5 77.333 -25 120
c-7.33301 16 -18.333 34.667 -33 56c-19.333 28.667 -59 61.667 -119 99c-2.66699 2 -9.66699 6.33301 -21 13c72.667 34 112.667 103 120 207c4 54.667 -12.667 103 -50 145zM377.001 565.003c-10.667 -29.333 -29.6689 -46.668 -57.002 -52.001c-46.667 0 -70 22 -70 66
c0 11.333 0.666992 21 2 29c4.66699 30 20.334 45 47.001 45c8.66699 0 20 -2.33301 34 -7c28.667 -9.33301 44.334 -31.666 47.001 -66.999c0 -3.33301 -1 -8 -3 -14zM341.999 241.001c10 0 20.333 -1.00195 31 -3.00195c47.333 -9.33301 71.666 -47.666 72.999 -114.999
c1.33301 -68 -16.667 -110 -54 -126c-16.667 -7.33301 -32 -11 -46 -11c-19.333 0 -37.666 6 -54.999 18c-38.667 27.333 -58 66.333 -58 117c0 32.667 10.167 60.834 30.5 84.501s46.5 35.5 78.5 35.5z" />
    <glyph glyph-name="nine" unicode="9" horiz-adv-x="698" 
d="M112 695c-26 -32 -43.002 -63.998 -51.002 -95.998c-4.66699 -21.333 -7.66699 -59 -9 -113c-2 -92.667 40 -159.334 126 -200.001c50.667 -24 95.334 -36 134.001 -36c29.333 0 54.333 5.66699 75 17c51.333 28 81.333 49.333 90 64c0 -52 -13.667 -127 -41 -225
c-29.333 -105.333 -64 -159 -104 -161c-28.667 -1.33301 -50 6.33398 -64 23.001c-5.33301 6 -14.166 23.333 -26.499 52s-33.166 43 -62.499 43c-18 0 -40.667 -10.333 -68 -31c-13.333 -10 -20 -24.667 -20 -44c0 -11.333 2.66699 -25 8 -41
c18 -54.667 44.667 -92.667 80 -114c30.667 -18.667 76.334 -29.667 137.001 -33c70 -4 124.667 12.333 164 49c29.333 26.667 60.666 77 93.999 151c32 71.333 55.333 167.666 70 288.999c7.33301 61.333 11 118 11 170c0 46.667 -3 89.667 -9 129
c-8.66699 57.333 -42 110 -100 158c-43.333 36 -96.333 54 -159 54c-26.667 0 -51.667 -2.33301 -75 -7c-94.667 -18.667 -161.334 -51.334 -200.001 -98.001zM228.998 506.002c-2 11.333 -2.99902 21.334 -2.99902 30.001c0 25.333 7 45.833 21 61.5s33.333 23.5 58 23.5
c14.667 0 30 -2 46 -6c38 -9.33301 57 -31 57 -65c0 -6.66699 -1 -14.334 -3 -23.001c-10.667 -48 -40.667 -73 -90 -75c-50.667 -2 -79.334 16 -86.001 54z" />
    <glyph glyph-name="colon" unicode=":" horiz-adv-x="340" 
d="M162 613c-20 -0.666992 -38.332 -9.99902 -54.999 -27.999c-12.667 -10 -22.667 -26 -30 -48c-3.33301 -20 -2.66602 -41 2.00098 -63c5.33301 -24.667 14.666 -43.334 27.999 -56.001s34.666 -19.667 63.999 -21c31.333 -1.33301 53.333 6.66699 66 24l32 45
c6.66699 12.667 9.33398 27 8.00098 43c-1.33301 6.66699 -4 18.334 -8 35.001c-10.667 37.333 -35.334 58.666 -74.001 63.999c-11.333 4 -22.333 5.66699 -33 5zM144.001 -4.99902c-19.333 -28 -29 -57.668 -29 -89.001c0 -17.333 2.66699 -35.333 8 -54
c24 -30.667 56 -43.667 96 -39c42.667 4.66699 68.334 34.334 77.001 89.001c1.33301 8.66699 2 17 2 25c0 40 -19 64.667 -57 74c-18.667 4.66699 -35.334 7 -50.001 7c-19.333 0 -35 -4.33301 -47 -13z" />
    <glyph glyph-name="semicolon" unicode=";" horiz-adv-x="262" 
d="M151 593c-22 2 -39.668 -5 -53.001 -21c-12 -20 -21.667 -50.667 -29 -92c-2.66699 -44.667 9.66602 -73 36.999 -85c21.333 -15.333 40.333 -23 57 -23c44 0 73.667 27 89 81c6.66699 25.333 7.33398 50 2.00098 74c-4.66699 18.667 -15.667 34.5 -33 47.5
s-35.666 19.5 -54.999 19.5c-4.66699 0 -9.66699 -0.333008 -15 -1zM205.999 -96c12 20.667 20.333 43 25 67c4 21.333 4 39 0 53c-5.33301 13.333 -28 29 -68 47c-10 4.66699 -19 7 -27 7c-26 0 -44 -22.333 -54 -67c-6 -28 -19 -76.667 -39 -146
c-4.66699 -15.333 -7.66699 -27.333 -9 -36c-2.66699 -9.33301 1 -19.666 11 -30.999l10 -5c18 3.33301 34 8.66602 48 15.999l8 4c40 20.667 71.667 51 95 91z" />
    <glyph glyph-name="less" unicode="&#x3c;" horiz-adv-x="722" 
d="M684 -158c-12 -21.333 -34.667 -31.999 -68 -31.999c-24 0 -53.667 6 -89 18c-125.333 42 -286 172.333 -482 391c-23.333 26 -35 54.667 -35 86c0 32.667 12.667 68 38 106c195.333 210 346.666 336.667 453.999 380c11.333 4.66699 24.666 7 39.999 7
c16 0 32.667 -3.33301 50 -10c34.667 -13.333 59 -32.333 73 -57c8.66699 -15.333 13 -30 13 -44c0 -17.333 -8.33301 -33.333 -25 -48c-83.333 -72.667 -174.333 -140.667 -273 -204c-63.333 -40.667 -104.666 -80 -123.999 -118c82 -100.667 208.667 -199 380 -295
c42.667 -36.667 68.334 -67.334 77.001 -92.001c1.33301 -4 2 -8.33301 2 -13c0 -20.667 -10.333 -45.667 -31 -75z" />
    <glyph glyph-name="equal" unicode="=" horiz-adv-x="860" 
d="M156 413c0 -39.333 36.334 -61.333 109.001 -66c83.333 -6 149.666 -6.66699 198.999 -2l164 16c56.667 5.33301 90 25 100 59c4 13.333 6 24.333 6 33c0 16.667 -5.33301 30.334 -16 41.001c-16.667 16.667 -74.667 25.667 -174 27
c-112.667 1.33301 -198.667 -2.33398 -258 -11.001c-86.667 -12.667 -130 -45 -130 -97zM173.001 168c0 -58 103 -80 309 -66l147 10c68 9.33301 106.667 30 116 62c4 13.333 6 25 6 35c0 16.667 -5.33301 30.667 -16 42c-15.333 16.667 -73 25.334 -173 26.001
c-108.667 1.33301 -195 -2.33398 -259 -11.001c-86.667 -11.333 -130 -44 -130 -98z" />
    <glyph glyph-name="greater" unicode="&#x3e;" horiz-adv-x="724" 
d="M675 189c-194.667 -209.333 -346 -335.999 -454 -379.999c-10 -4 -21.333 -6 -34 -6c-47.333 0 -85.333 16.667 -114 50c-17.333 20 -26 41.333 -26 64c0 17.333 7.66699 32.666 23 45.999c93.333 79.333 184.333 147.333 273 204c66 42 107.333 80.667 124 116
c-81.333 102 -207 200.333 -377 295c-45.333 40.667 -71 71.334 -77 92.001c-2 4 -3 9 -3 15c0 20.667 9.66699 45.667 29 75c12.667 19.333 35 29 67 29c24.667 0 54.667 -5.66699 90 -17c86.667 -28 176 -85.667 268 -173c81.333 -77.333 153.333 -149.333 216 -216
c23.333 -24.667 35 -52.334 35 -83.001c0 -32.667 -13.333 -69.667 -40 -111z" />
    <glyph glyph-name="question" unicode="?" horiz-adv-x="785" 
d="M283 552.5c24.667 29 54.667 45.8369 90 50.5039c30.667 4 55.667 1.33301 75 -8c61.333 -28.667 92 -77.334 92 -146.001c0 -44 -8 -73.333 -24 -88c-42 -38.667 -91.333 -61.667 -148 -69c-8 0 -11.667 -7.66699 -11 -23c1.33301 -36.667 4 -96.334 8 -179.001
c1.33301 -30.667 19 -46 53 -46c4.66699 0 10 0.666992 16 2c28 3.33301 47 24.666 57 63.999c3.33301 13.333 4.33301 26.666 3 39.999c-3.33301 31.333 -4 50.666 -2 57.999c26 14 48.167 24.5 66.5 31.5s41.833 20.5 70.5 40.5c26 18 46.667 40 62 66
c17.333 39.333 28.5 71.333 33.5 96s6.83301 58 5.5 100c-2 80 -34.333 141 -97 183c-52.667 35.333 -121.667 55 -207 59c-14.667 0.666992 -29.334 1 -44.001 1c-99.333 0 -173 -19 -221 -57c-52 -41.333 -82 -110.666 -90 -207.999c-1.33301 -16 -2 -29.333 -2 -40
c0 -73.333 20.667 -118 62 -134c20 -8 38 -12 54 -12c24.667 0 41.334 15 50.001 45c4.66699 14.667 7.66699 40 9 76s14.333 68.5 39 97.5zM520 -105.996c5.33301 37.333 -15.6689 63.333 -63.002 78c-15.333 4.66699 -28.666 7 -39.999 7c-24.667 0 -41.667 -11 -51 -33
c-13.333 -33.333 -17.666 -53.333 -12.999 -60c16 -47.333 39.667 -71 71 -71c8 0 16 1.33301 24 4c42.667 14 66.667 39 72 75z" />
    <glyph glyph-name="at" unicode="@" horiz-adv-x="1050" 
d="M641 88c-26.667 -43.333 -70 -64.9971 -130 -64.9971c-17.333 0 -34.666 2.33301 -51.999 7c-34 9.33301 -58.667 20 -74 32c-18 14.667 -32 37.667 -42 69c-6.66699 21.333 -10 40 -10 56c0 17.333 5.5 37 16.5 59s23.5 37.333 37.5 46c32 20 66.667 30 104 30
c12.667 0 30 -3 52 -9s37 -12.667 45 -20c3.33301 18.667 5 35.667 5 51c0 22 -1.66699 37.833 -5 47.5s-12.333 20 -27 31s-27 16.5 -37 16.5c-10.667 0 -24 -18.333 -40 -55s-34 -55 -54 -55c5.33301 0 0.333008 1 -15 3c-18 2.66699 -28 4.33398 -30 5.00098
c-22.667 8.66699 -34 32.334 -34 71.001c0 74 36.333 126.667 109 158c22 9.33301 42 14 60 14c48 0 85.333 -5.33301 112 -16c35.333 -14.667 62 -40.667 80 -78c16.667 -34.667 25 -73.334 25 -116.001c0 -8 -0.833008 -20 -2.5 -36s-2.5 -28 -2.5 -36
c0 -84.667 11.333 -141 34 -169c26.667 22 44.334 49.333 53.001 82c6 21.333 9 55 9 101c0 31.333 -2 64 -6 98c-6 53.333 -40.333 102.666 -103 147.999c-60 43.333 -117.667 65 -173 65s-105.5 -14.167 -150.5 -42.5s-81.167 -67.5 -108.5 -117.5
c-23.333 -42.667 -35 -109.334 -35 -200.001c0 -89.333 26.667 -156.333 80 -201c70 -58.667 149.667 -88 239 -88c5.33301 0 13 0.5 23 1.5s17.667 1.5 23 1.5c40.667 0 61 -24.333 61 -73c0 -50 -49 -75 -147 -75c-90 0 -174 23.333 -252 70
c-81.333 49.333 -138.333 114 -171 194c-26.667 66 -40 132 -40 198c0 100.667 26.333 199.334 79 296.001c38 69.333 105.333 120.666 202 153.999c74 25.333 146.667 38 218 38c114 0 204.667 -27.667 272 -83c59.333 -48.667 100.333 -104.334 123 -167.001
c19.333 -52.667 29 -122.334 29 -209.001c0 -125.333 -23.333 -211 -70 -257c-38.667 -38.667 -83.334 -58 -134.001 -58c-68.667 0 -117.334 27.667 -146.001 83zM519 197.003c-0.666992 1.33301 -2.66699 2.33301 -6 3c-3.33301 3.33301 -13 5 -29 5
c-9.33301 0 -16.5 -5.5 -21.5 -16.5s-7.5 -21.833 -7.5 -32.5c0 -21.333 13 -32 39 -32c10.667 0 20.167 3.5 28.5 10.5s12.5 15.5 12.5 25.5c0 10.667 -0.666992 17.5 -2 20.5s-6 8.5 -14 16.5z" />
    <glyph glyph-name="A" unicode="A" horiz-adv-x="788" 
d="M421 800c-14.667 1.33301 -28.0029 1.99805 -40.0029 1.99805c-52.667 0 -98.667 -9.66699 -138 -29c-45.333 -22 -77 -55.333 -95 -100c-18.667 -47.333 -37.334 -118 -56.001 -212c-21.333 -108 -33.666 -186.333 -36.999 -235c-1.33301 -20 -5 -81.667 -11 -185
c-4 -66 -0.666992 -116 10 -150c16.667 -54 51.667 -84.333 105 -91c10.667 -1.33301 19.334 -2 26.001 -2c66 0 99 40 99 120c0 7.33301 -0.666992 16.333 -2 27c-4.66699 38 -9.33398 105.667 -14.001 203c-3.33301 63.333 -2.66602 108 2.00098 134
c9.33301 53.333 34 86.666 74 99.999c20 6.66699 48.333 9.33398 85 8.00098c35.333 -1.33301 61 -51.666 77 -150.999c6.66699 -40 10.667 -97 12 -171c1.33301 -78 4.33301 -134.5 9 -169.5s15.334 -60.167 32.001 -75.5s42.334 -23 77.001 -23c38 0 66 30 84 90
c12.667 40.667 19 85.334 19 134.001c0 71.333 -6 150 -18 236c-15.333 110.667 -28.333 187.334 -39 230.001c-48 195.333 -135 298.666 -261 309.999zM468.997 568.998c-10 -28.667 -35.666 -43 -76.999 -43c-33.333 0 -53.333 0.666992 -60 2
c-20.667 4 -36.334 15 -47.001 33c-4.66699 8 -7 15.333 -7 22c0 14 7.33301 28.333 22 43c22 22.667 51 32.667 87 30c56 -4 84 -28 84 -72c0 -5.33301 -0.666992 -10.333 -2 -15z" />
    <glyph glyph-name="B" unicode="B" horiz-adv-x="747" 
d="M341 800c-45.333 -0.666992 -90.668 -6.99902 -136.001 -18.999c-101.333 -26.667 -155 -95.667 -161 -207c-2.66699 -46 -4 -92.667 -4 -140c0 -128 9.33301 -259.333 28 -394c14.667 -104.667 56.334 -174.667 125.001 -210c24.667 -12.667 61.334 -22.667 110.001 -30
c23.333 -3.33301 47.333 -5 72 -5c65.333 0 134.666 12.333 207.999 37c64 21.333 104.667 62 122 122c6.66699 23.333 9.66699 59 9 107c-2 96 -39.667 166 -113 210c-34 20 -106 38.667 -216 56c121.333 13.333 200.666 48.333 237.999 105
c30.667 46.667 46 94.334 46 143.001c0 9.33301 -1 20.666 -3 33.999c-15.333 102.667 -78.666 163 -189.999 181c-44.667 7.33301 -89.667 10.666 -135 9.99902zM211.998 560.001c-2 59.333 32.001 90 102.001 92c71.333 2 109.333 -22 114 -72
c5.33301 -50.667 -29.334 -81.667 -104.001 -93c-12.667 -2 -23 -3 -31 -3c-52 0 -79 25.333 -81 76zM282.999 149.001c20.667 8.66699 41 13 61 13c16 0 32 -2.33301 48 -7c60.667 -18 91 -47.667 91 -89c0 -9.33301 -1.66699 -19.333 -5 -30c-12 -38.667 -47 -58 -105 -58
c-24 0 -49 4.33301 -75 13c-44 14.667 -67 40.667 -69 78s16 64 54 80z" />
    <glyph glyph-name="C" unicode="C" horiz-adv-x="798" 
d="M601 565c18.667 -4 35.665 -6.00098 50.998 -6.00098c60.667 0 88.334 30.667 83.001 92c-6.66699 78.667 -47.667 126 -123 142c-28 9.33301 -62.667 14 -104 14c-28 0 -59.667 -2.33301 -95 -7c-72 -9.33301 -127 -22.333 -165 -39c-46 -20.667 -89.667 -55 -131 -103
c-34 -40 -57 -103.667 -69 -191c-6.66699 -50 -10 -99.667 -10 -149c0 -38 2 -76.333 6 -115c20.667 -192 85.667 -310.667 195 -356c80 -33.333 156 -49 228 -47c30.667 0.666992 82.334 10.334 155.001 29.001c67.333 30 101 64.667 101 104c0 14 -3 27 -9 39
c-22 45.333 -74.333 68 -157 68c-12.667 0 -31.5 -1.16699 -56.5 -3.5s-43.833 -3.5 -56.5 -3.5c-96 0 -157.667 42.667 -185 128c-18 56.667 -27 107.334 -27 152.001c0 35.333 5 66.666 15 93.999c41.333 114 123 171 245 171c32 0 68.333 -4.33301 109 -13z" />
    <glyph glyph-name="D" unicode="D" horiz-adv-x="880" 
d="M831 266c0 92 -16.665 178.664 -49.998 259.997c-2.66699 3.33301 -4.66699 7 -6 11c-26 58.667 -49.333 100.667 -70 126c-27.333 34 -64.5 62.667 -111.5 86s-100.5 40.333 -160.5 51c-22.667 4 -45.667 6 -69 6c-46 0 -96.333 -6.66699 -151 -20
c-70 -17.333 -116.667 -49.666 -140 -96.999c-14.667 -29.333 -24 -86.666 -28 -171.999c-2.66699 -48 1.66602 -125 12.999 -231c28 -270.667 78.667 -422 152 -454c52.667 -23.333 124 -34 214 -32c33.333 0.666992 64 5 92 13c93.333 26.667 164.666 70 213.999 130
c37.333 46 60 82 68 108c22 70.667 33 142.334 33 215.001zM410.002 542.997c58 -12.667 107.67 -49.165 149.003 -109.498s59.666 -120.5 54.999 -180.5s-17.334 -106.667 -38.001 -140c-24.667 -39.333 -63.334 -67 -116.001 -83c-24.667 -7.33301 -48 -11 -70 -11
c-30 0 -57 6.33301 -81 19c-27.333 14.667 -44.5 35.167 -51.5 61.5s-13.167 70.166 -18.5 131.499c-4.66699 55.333 -4.66699 110.666 0 165.999c8 82 26.333 129.667 55 143c14.667 6.66699 32.667 10 54 10c19.333 0 40 -2.33301 62 -7z" />
    <glyph glyph-name="E" unicode="E" horiz-adv-x="701" 
d="M616 626c0.666992 2 2.00098 9.66504 4.00098 22.998c3.33301 21.333 -1.33398 44.5 -14.001 69.5s-28.667 41.833 -48 50.5c-54.667 18 -116.334 28.333 -185.001 31c-21.333 0.666992 -53.666 -2.33301 -96.999 -9c-135.333 -20.667 -212.333 -80 -231 -178
c-14 -72.667 -21 -144.334 -21 -215.001c0 -26 1.33301 -56.333 4 -91c6 -81.333 10 -177.166 12 -287.499s56 -174.833 162 -193.5c24 -4 93.333 -10.667 208 -20c41.333 -4 66.666 -6 75.999 -6c77.333 0 116 30.667 116 92c0 10 -1.33301 19.333 -4 28
c-14 41.333 -65 58.333 -153 51c-47.333 -4 -101.333 -1 -162 9c-16 2.66699 -32.667 11.334 -50 26.001c-13.333 11.333 -16.666 31.333 -9.99902 60c6.66699 30 19.667 45 39 45c6 1.33301 13 2 21 2s17 -0.666992 27 -2c8 -1.33301 30 -3 66 -5
c24.667 -1.33301 62.334 -4.66602 113.001 -9.99902c46 -4.66699 81.667 1 107 17c10 10 16.333 19 19 27c2.66699 20 4 34.667 4 44c0 20.667 -10 38 -30 52c-17.333 12 -37 18.667 -59 20l-71 4c-24.667 1.33301 -57 1 -97 -1c-39.333 -2 -70 -1.66699 -92 1
c-35.333 4 -57 27.667 -65 71c-3.33301 42 -5 70.667 -5 86c5.33301 43.333 10 69.666 14 78.999c9.33301 24.667 28.666 42.334 57.999 53.001c32.667 12 64.667 17.667 96 17c32 -0.666992 67 -0.666992 105 0c42 0.666992 69.667 3 83 7c26 7.33301 46 25 60 53z" />
    <glyph glyph-name="F" unicode="F" horiz-adv-x="765" 
d="M247 469c0 29.333 8.99707 56.333 26.9971 81c23.333 31.333 55.666 49 96.999 53c64 6 127.667 2.66699 191 -10c34 -6.66699 62 -10 84 -10c16.667 0 29 2.66699 37 8c37.333 24 56 53.667 56 89c0 12.667 -2 26.667 -6 42c-8.66699 33.333 -37 54 -85 62
c-54.667 8.66699 -114.667 14 -180 16c-52 1.33301 -107.5 -1.66699 -166.5 -9s-104.167 -18.333 -135.5 -33c-46 -21.333 -76.333 -54.666 -91 -99.999v-594c0 -2 0.333008 -4 1 -6c2 -10 4.66699 -41 8 -93c6 -87.333 25.333 -139 58 -155
c15.333 -7.33301 42.333 -10.666 81 -9.99902c40 0.666992 69.333 8.66699 88 24c11.333 9.33301 17 24.666 17 45.999c0 17.333 -3 37.666 -9 60.999c-13.333 51.333 -19.666 98 -18.999 140c0.666992 38.667 28.334 57 83.001 55l168 -10
c56.667 -3.33301 94.667 14.667 114 54c9.33301 19.333 14 38 14 56c0 58.667 -37 88 -111 88c-13.333 0 -23.666 -0.333008 -30.999 -1c-32 -2.66699 -92 -9 -180 -19c-6 -0.666992 -14 -1 -24 -1c-40 0 -63.667 14.333 -71 43c-3.33301 14 -5.66602 32 -6.99902 54l-4 39
c-2.66699 16.667 -4 30 -4 40z" />
    <glyph glyph-name="G" unicode="G" horiz-adv-x="908" 
d="M862 496c0 54.667 -14.0049 106.999 -42.0049 156.999c-29.333 52.667 -67.666 90 -114.999 112c-41.333 19.333 -100 31 -176 35c-62.667 3.33301 -110.334 2.66602 -143.001 -2.00098c-107.333 -15.333 -197.333 -67.666 -270 -156.999
c-34.667 -42.667 -55.667 -107.667 -63 -195c-6.66699 -79.333 -10 -147.333 -10 -204c0 -127.333 12.667 -215 38 -263c18.667 -36 41.334 -65.667 68.001 -89c18.667 -16.667 49.667 -37 93 -61c31.333 -17.333 85 -27 161 -29c83.333 -2 141.333 -0.333008 174 5
c67.333 10.667 115.166 38 143.499 82s50.5 104.333 66.5 181c3.33301 16 5 32.333 5 49c0 28 -4.33301 55.333 -13 82c-14 43.333 -55.667 74 -125 92c-52 13.333 -94.667 20 -128 20c-9.33301 0 -18.333 -0.666992 -27 -2c-15.333 -2 -38.666 -5.33301 -69.999 -10
c-27.333 -4.66699 -49 -12.667 -65 -24c-9.33301 -6.66699 -14 -21.334 -14 -44.001c0 -17.333 2.66699 -39 8 -65c8.66699 -42 31.334 -63 68.001 -63c17.333 0 38.333 4.66699 63 14c35.333 13.333 63 20 83 20c22 0 35.333 -8 40 -24
c8.66699 -30.667 11.667 -53.667 9 -69c-1.33301 -16.667 -7.66602 -32.667 -18.999 -48s-30.333 -24.666 -57 -27.999l-66 -6c-114.667 0 -186 29.667 -214 89c-21.333 43.333 -33.333 88.333 -36 135c-8 135.333 2 236.666 30 303.999s80.667 104.666 158 111.999
c9.33301 0.666992 18 1 26 1c72.667 0 126.334 -32 161.001 -96c0.666992 -2.66699 4 -19 10 -49c4 -21.333 10.333 -37.166 19 -47.499s23.834 -20.666 45.501 -30.999s43.5 -15.166 65.5 -14.499c18.667 0.666992 41.667 6 69 16c32.667 12 49 50.333 49 115z" />
    <glyph glyph-name="H" unicode="H" horiz-adv-x="808" 
d="M505 514c0.666992 -40 -19.334 -64.3379 -60.001 -73.0049c-9.33301 -1.33301 -46.333 -1.66602 -111 -0.999023c-44.667 0.666992 -71.334 12 -80.001 34c-3.33301 8.66699 -4.66602 40 -3.99902 94c0.666992 40.667 -3.66602 80.334 -12.999 119.001
c-18 75.333 -49 113 -93 113c-10.667 0 -23.334 -2.33301 -38.001 -7c-32.667 -10 -52.667 -47 -60 -111c-2 -18.667 -2.66699 -65.667 -2 -141c0.666992 -48 3.66699 -118.667 9 -212c2 -43.333 6 -119.666 12 -228.999c4.66699 -76 6.66699 -124.333 6 -145
c0 -2 0.666992 -24 2 -66c0.666992 -28.667 7 -49.5 19 -62.5s32.333 -21.833 61 -26.5c79.333 -13.333 119.666 14.334 120.999 83.001c0.666992 34 -1 81.5 -5 142.5s-5.66699 117.833 -5 170.5c0.666992 50.667 17.334 75 50.001 73c25.333 -2 66.333 0 123 6
c50.667 5.33301 77 -22.667 79 -84l7 -202c1.33301 -47.333 4.66602 -80.333 9.99902 -99c10 -38.667 30 -62.334 60 -71.001c14.667 -4.66699 28.334 -7 41.001 -7c29.333 0 52.333 11.333 69 34c14.667 20 23 45.667 25 77c2.66699 46 0 101.333 -8 166
c-5.33301 36.667 -12.666 92 -21.999 166c-0.666992 6.66699 -2 33.334 -4 80.001l-10 219c-1.33301 31.333 -1 72 1 122c1.33301 32 -4 59.333 -16 82c-14.667 28 -37 42 -67 42c-12 0 -25.667 -3.33301 -41 -10c-31.333 -13.333 -50 -54.666 -56 -123.999
c-1.33301 -16 -1.33301 -66.667 0 -152z" />
    <glyph glyph-name="I" unicode="I" horiz-adv-x="605" 
d="M417 785c-36 10 -75.6631 15 -118.996 15c-36.667 0 -76 -3.66699 -118 -11c-90.667 -16 -136.334 -48.333 -137.001 -97c-0.666992 -50 5.66602 -84.667 18.999 -104c11.333 -16.667 24 -27 38 -31c7.33301 -1.33301 44 -6 110 -14c0 -26.667 1.33301 -67.667 4 -123
c2.66699 -50.667 3.33398 -91.667 2.00098 -123c-0.666992 -24 0.333008 -69 3 -135c2.66699 -58.667 2.66699 -103.334 0 -134.001c-16.667 3.33301 -25.667 5 -27 5c-10.667 2.66699 -21 4 -31 4c-54 0 -83.333 -30 -88 -90c-3.33301 -44 10 -77.667 40 -101
c21.333 -17.333 56.333 -31.333 105 -42c36 -8 89.333 -9.33301 160 -4c46.667 3.33301 85.667 13 117 29c43.333 21.333 65 52 65 92c0 8 -1 16.333 -3 25c-12.667 52.667 -62.334 73.667 -149.001 63c-6.66699 -2 -10.334 8 -11.001 30
c-0.666992 8.66699 -0.666992 21.667 0 39c1.33301 38.667 -0.666992 96 -6 172c-6 82 -9 139.667 -9 173c0 42 -1.66699 81.667 -5 119c16 -2 30.333 -3 43 -3c23.333 0 41.666 3.66699 54.999 11c20 10.667 37.333 31.667 52 63c7.33301 15.333 11 32 11 50
c0 14.667 -2.33301 29.667 -7 45c-10 32.667 -48 58.334 -114 77.001z" />
    <glyph glyph-name="J" unicode="J" horiz-adv-x="814" 
d="M600 800c-74 2 -153.663 -3.33105 -238.996 -15.998c-42 -6 -67.333 -33 -76 -81c-1.33301 -7.33301 -2 -15 -2 -23c0 -33.333 17 -60.333 51 -81c29.333 -17.333 62 -26 98 -26c5.33301 0 10.333 0.333008 15 1c3.33301 -40.667 7.66602 -90.334 12.999 -149.001v-42
c0 -6 0.333008 -14.333 1 -25v-17c0 -34 -2.33301 -84.667 -7 -152l-10 -144c-2 -24 -13 -37.333 -33 -40c-18.667 -2 -34.667 -1.33301 -48 2s-39 20.666 -77 51.999l-51 50c-22 20.667 -41.667 33 -59 37s-34.666 5.66699 -51.999 5
c-18.667 -1.33301 -35.334 -6.66602 -50.001 -15.999c-15.333 -12.667 -25.666 -32.667 -30.999 -60c-4.66699 -24.667 -4.33398 -47.334 0.999023 -68.001c19.333 -75.333 81.333 -134 186 -176c48 -19.333 86.667 -29.333 116 -30c27.333 -0.666992 52.333 -0.666992 75 0
c42.667 1.33301 76.5 9.5 101.5 24.5s47.5 40.833 67.5 77.5c25.333 46.667 39.666 128.667 42.999 246c4 128 5 215.667 3 263c-2 50 -3 108.667 -3 176c59.333 4 97.666 33 114.999 87c6 20 6.33301 38.333 1 55c-14.667 44 -64.334 67.333 -149.001 70z" />
    <glyph glyph-name="K" unicode="K" horiz-adv-x="859" 
d="M810 656c-4 65.333 -35.3291 98.0049 -93.9961 98.0049c-39.333 0 -89 -24.333 -149 -73c-25.333 -20.667 -67.333 -60.334 -126 -119.001l-15 -15c-4.66699 -4.66699 -25.334 -24.334 -62.001 -59.001c-5.33301 -4.66699 -27 -22 -65 -52l-4 -3
c-6 -4.66699 -11.667 -7 -17 -7c-21.333 0 -31.333 41.667 -30 125c1.33301 97.333 -1.66699 161.666 -9 192.999c-6 26.667 -26 44 -60 52c-10.667 2.66699 -19.334 4 -26.001 4c-30.667 0 -55.667 -15 -75 -45c-16 -24 -25.333 -53 -28 -87
c-0.666992 -8 -2.33398 -47.667 -5.00098 -119c-2.66699 -74.667 -0.333984 -153.334 6.99902 -236.001l20 -223c1.33301 -15.333 7 -65.333 17 -150c1.33301 -12.667 3.66602 -33 6.99902 -61c0.666992 -6 9 -22.333 25 -49c13.333 -22.667 41.333 -32.667 84 -30
c59.333 4 86.666 46 81.999 126c-2 29.333 -8 72 -18 128c-2 10 -4.33301 31.667 -7 65c-1.33301 18 -1.66602 33.667 -0.999023 47c51.333 -64 114.666 -128.333 189.999 -193c61.333 -52.667 118 -90 170 -112c42.667 -18 75.334 -27 98.001 -27c6 0 11 0.666992 15 2
c48 15.333 72 47.666 72 96.999c0 19.333 -12.667 41.666 -38 66.999l-16 16c-34.667 34.667 -76 65 -124 91c-30 16 -70.333 43.667 -121 83c-55.333 42.667 -95 71.334 -119 86.001c32.667 25.333 84.5 59.5 155.5 102.5s123.167 77.5 156.5 103.5
c76.667 59.333 113.334 117.333 110.001 174z" />
    <glyph glyph-name="L" unicode="L" horiz-adv-x="795" 
d="M152 800c-2 0 -7.33203 -1.00391 -15.999 -3.00391c-20.667 -1.33301 -37.667 -8 -51 -20c-30 -21.333 -43.667 -70 -41 -146c0.666992 -18 1.66699 -49 3 -93c0.666992 -19.333 2 -72 4 -158c1.33301 -48 6 -110.333 14 -187c2 -25.333 6.33301 -71.333 13 -138l7 -69
c2 -22 9 -45.333 21 -70c13.333 -26.667 28.333 -46 45 -58c27.333 -19.333 76 -35.666 146 -48.999c30.667 -6 58.667 -9 84 -9c60 0 128.667 4.33301 206 13c48 5.33301 78 10.666 90 15.999c34.667 15.333 52 56 52 122c0 32.667 -17.667 55.334 -53 68.001
c-26 10 -57.333 13.333 -94 10c-30.667 -2.66699 -64 -4 -100 -4c-16.667 -2 -41.667 -5.33301 -75 -10c-52.667 0 -93 11.667 -121 35c-20 16.667 -27.667 78.334 -23 185.001c0.666992 16 1.66699 42.333 3 79c2 49.333 8.66699 104.666 20 165.999l18 131
c3.33301 22.667 2.66602 48.334 -2.00098 77.001s-12.667 52.334 -24 71.001c-23.333 38.667 -65.333 52.334 -126 41.001z" />
    <glyph glyph-name="M" unicode="M" horiz-adv-x="995" 
d="M482 211c-10 179.333 -33.3301 325.334 -69.9971 438.001c-28 85.333 -80.667 134.333 -158 147c-16 2.66699 -30 4 -42 4c-63.333 0 -109 -31 -137 -93c-22 -48.667 -31.667 -107.334 -29 -176.001c2.66699 -77.333 6 -133.666 10 -168.999c4 -38.667 4 -126 0 -262
c-4.66699 -140.667 8.33301 -227.667 39 -261c23.333 -26 47.333 -39 72 -39c5.33301 0 12 1 20 3c48 12 75.333 41.667 82 89c1.33301 8.66699 -0.333984 51.667 -5.00098 129c-4 68.667 -10 165.667 -18 291c-8.66699 113.333 -8.33398 186.666 0.999023 219.999
c28.667 -60 51.667 -130.833 69 -212.5l40 -192.5c14.667 -74 25.667 -138.667 33 -194c5.33301 -38 24.666 -64.667 57.999 -80c24.667 -12 45.334 -18 62.001 -18c15.333 0 37.333 7.33301 66 22c26.667 13.333 56 149 88 407c12 95.333 29 181 51 257
c-2.66699 -134.667 -3 -225.334 -1 -272.001c3.33301 -74.667 6.33301 -129.667 9 -165c6 -70 11.667 -117 17 -141c13.333 -58.667 37 -96.667 71 -114c15.333 -8 29 -12 41 -12c50 0 76.667 45 80 135c2 46.667 0.666992 120.334 -4 221.001
c-2 60.667 -5.66699 151.667 -11 273s-21 207 -47 257c-32 62 -72 93 -120 93c-26 0 -54.333 -7 -85 -21c-42 -19.333 -82 -105 -120 -257c-14.667 -56.667 -35.334 -159 -62.001 -307z" />
    <glyph glyph-name="N" unicode="N" horiz-adv-x="957" 
d="M271 776c-34 11.333 -62.668 17 -86.001 17c-46 0 -85 -27 -117 -81c-16 -26.667 -24 -85 -24 -175c0 -27.333 0.666992 -54.5 2 -81.5s2 -109.833 2 -248.5c0 -192 13 -312 39 -360c16.667 -31.333 48.667 -47 96 -47c30 0 53.333 13.667 70 41c14 23.333 21 51 21 83
c0 20 -3 43.667 -9 71c-16 72.667 -32 195.334 -48 368.001c-0.666992 7.33301 -1 15.666 -1 24.999c0 42.667 13 70.667 39 84c2.66699 2 5.66699 3 9 3c17.333 0 35 -27.333 53 -82c14 -42 38.333 -110 73 -204c69.333 -188 135.333 -306.333 198 -355
c26.667 -20.667 58 -31 94 -31c14.667 0 28.667 1.33301 42 4c43.333 8.66699 74.666 28.667 93.999 60c14 22.667 26 59 36 109c23.333 117.333 35 265.333 35 444c0 18 1 45 3 81s3 63 3 81c0 145.333 -44.667 218 -134 218c-72.667 0 -109.667 -47.667 -111 -143
c-1.33301 -98 3.33398 -212.667 14.001 -344s14.667 -217 12 -257c-1.33301 -23.333 -4.66602 -35 -9.99902 -35c-4 0 -8 3.66699 -12 11c-18 31.333 -40.333 84 -67 158l-57 163c-40.667 112.667 -73 192.667 -97 240c-52.667 103.333 -106.667 164.333 -162 183z" />
    <glyph glyph-name="O" unicode="O" horiz-adv-x="803" 
d="M66 630c-25.333 -89.333 -37.6689 -165 -37.002 -227c0 -50.667 0.333008 -101.334 1 -152.001c1.33301 -66 6.33301 -115.667 15 -149l32 -125c0 -23.333 15 -51 45 -83c27.333 -28.667 53.666 -47.667 78.999 -57c36.667 -14 67 -23.333 91 -28
c13.333 -2.66699 44 -5.66699 92 -9c10 -0.666992 20 -1 30 -1c45.333 0 89.333 7.33301 132 22c62 21.333 102.333 54.333 121 99c16 38 25 64 27 78c20.667 148.667 30.667 258.667 30 330c0 28.667 -2.33301 63.667 -7 105c-5.33301 47.333 -8.66602 81.333 -9.99902 102
c-3.33301 43.333 -14.666 88.333 -33.999 135c-10 24.667 -28.667 48.334 -56 71.001s-54 37.667 -80 45c-21.333 6 -54 10.667 -98 14c-23.333 2 -45.666 3 -66.999 3c-171.333 0 -273.333 -57.667 -306 -173zM431.997 591c37.333 -10.667 64.668 -49.001 82.001 -115.001
c12 -45.333 18 -95.333 18 -150c0 -34.667 -2 -72.667 -6 -114c-11.333 -117.333 -32.666 -187.333 -63.999 -210c-22 -16 -49.667 -24 -83 -24c-14.667 0 -29.334 1.33301 -44.001 4c-53.333 10 -87.333 62 -102 156c-8 52 -12 102.333 -12 151c0 44 3 90 9 138
c12 98.667 40 153.334 84 164.001c41.333 10.667 80.666 10.667 117.999 0z" />
    <glyph glyph-name="P" unicode="P" horiz-adv-x="874" 
d="M838 554c3.33301 45.333 -5.66699 84.332 -27 116.999c-18 28 -48 54.667 -90 80c-54.667 32.667 -127.667 49 -219 49c-95.333 0 -163.333 -5.33301 -204 -16c-103.333 -26.667 -166.333 -83 -189 -169c-13.333 -50.667 -20 -99.667 -20 -147v-206
c1.33301 -67.333 5.66602 -136 12.999 -206c1.33301 -23.333 4 -58 8 -104c8 -92 35 -142.667 81 -152c22.667 -4.66699 46.167 -0.333984 70.5 12.999s38.833 31.333 43.5 54c5.33301 18 7 42 5 72c-2 25.333 -6.33301 52 -13 80c-8 32.667 -14.667 124.334 -20 275.001
c55.333 -9.33301 109.333 -14 162 -14c29.333 0 58 1.33301 86 4c62 6 101.333 10.667 118 14c82.667 17.333 139 65 169 143c14.667 38.667 23.334 76.334 26.001 113.001zM510 455.999c-2 -2 -5.66797 -4.66699 -11.001 -8l-20 -9c-12 -5.33301 -39.667 -7.33301 -83 -6
c-79.333 2.66699 -120 28.667 -122 78c-3.33301 74 32.334 117 107.001 129c12 2 25.667 3 41 3c53.333 0 93.333 -20.333 120 -61c12 -18 18 -35.333 18 -52c0 -28 -16.667 -52.667 -50 -74z" />
    <glyph glyph-name="Q" unicode="Q" horiz-adv-x="920" 
d="M455 800c-23.333 2 -45.333 3.00195 -66 3.00195c-171.333 0 -273.333 -57.667 -306 -173c-26.667 -93.333 -39.667 -169.333 -39 -228l2 -179c2 -68.667 6.66699 -128.334 14 -179.001c8.66699 -56.667 14.334 -89.667 17.001 -99c20 -66.667 69 -107.667 147 -123
c51.333 -10 109.666 -17 174.999 -21c38.667 -2 87.667 3.66699 147 17c68.667 16 114.334 50 137.001 102c14 32.667 23 59 27 79v4h3c4.66699 -1.33301 30.667 -7 78 -17c7.33301 -2.66699 17 -4 29 -4c12.667 -2 27.834 0.166992 45.501 6.5s27.834 15.166 30.501 26.499
c2 6 4 12.333 6 19c2 4 3 10.333 3 19c1.33301 12.667 -0.333984 25.834 -5.00098 39.501s-12 23.167 -22 28.5c-52.667 19.333 -101.667 35 -147 47c6.66699 64 9.66699 118 9 162c-0.666992 28 -3 62.333 -7 103l-10 102c-4 43.333 -15.667 88.333 -35 135
c-10.667 26 -30 50.667 -58 74c-24.667 20 -52.334 34.333 -83.001 43c-20.667 5.33301 -51.334 9.66602 -92.001 12.999zM559 206.002l-0.000976562 -18.998l-87 11c-39.333 5.33301 -75.666 5 -108.999 -1c-22 -4 -38 -22.667 -48 -56c-7.33301 -14 -4 -27.833 10 -41.5
s31.667 -23.834 53 -30.501c53.333 -16.667 107 -28.334 161 -35.001c0 -14.667 -11.667 -31.667 -35 -51c-14 -12 -40 -18 -78 -18c-22 0 -48.667 2.33301 -80 7c-82 12 -127 67 -135 165c-8 99.333 -8 184 0 254c13.333 121.333 49.333 187.333 108 198
c56.667 10 101 10 133 0c71.333 -22 107 -149.667 107 -383z" />
    <glyph glyph-name="R" unicode="R" horiz-adv-x="865" 
d="M138 737c-44.667 -30.667 -70.001 -101.33 -76.001 -211.997c-1.33301 -28.667 -2.33301 -80.334 -3 -155.001c-0.666992 -108.667 4 -241.667 14 -399c1.33301 -21.333 3.33301 -39.666 6 -54.999v0c0 -82.667 23.333 -121.334 70 -116.001
c24.667 2.66699 42.334 6.66699 53.001 12c14.667 7.33301 26 20.666 34 39.999s12 37.333 12 54c-0.666992 5.33301 -0.666992 33.666 0 84.999c0.666992 28.667 -6 111.667 -20 249l121 -243c24 -47.333 51.667 -88 83 -122c42.667 -45.333 84.667 -68 126 -68
c12.667 0 25.334 3 38.001 9c34.667 16.667 52 41 52 73c0 30 -24 74.333 -72 133l-104 122c-32 38.667 -72.667 84.334 -122 137.001c-14.667 16 -22 27.667 -22 35c0 4.66699 3.66699 7 11 7c18.667 0 47.334 -1.5 86.001 -4.5s68 -4.5 88 -4.5
c133.333 1.33301 227.666 49.666 282.999 144.999c13.333 23.333 20 52 20 86c0 26 -4.33301 58 -13 96c-18.667 81.333 -76.334 129.666 -173.001 144.999c-92.667 14.667 -174.334 19.334 -245.001 14.001c-127.333 -9.33301 -209.666 -30.333 -246.999 -63z
M461.999 624.004c41.333 -18.667 57 -51.333 47 -98c-10.667 -49.333 -66.334 -71.333 -167.001 -66c-51.333 2.66699 -76.666 28 -75.999 76c0.666992 36.667 16.667 65 48 85c21.333 14 45 21 71 21c25.333 0 51 -6 77 -18z" />
    <glyph glyph-name="S" unicode="S" horiz-adv-x="843" 
d="M791 103c-2.66699 35.333 -12.334 74.0029 -29.001 116.003c-18.667 47.333 -39.667 80 -63 98c-46 34.667 -116.667 53.667 -212 57c-34 1.33301 -72.667 3 -116 5c-50 5.33301 -85.333 16 -106 32c-28 20.667 -40 54 -36 100c4.66699 51.333 35 83.666 91 96.999
c34 8 74 12 120 12c30.667 0 62.334 -1.66699 95.001 -5c20 -2 36.667 -3 50 -3c56 0 89 13.333 99 40c6 16 9 32 9 48c0 51.333 -28.667 80 -86 86l-102 10c-10.667 0.666992 -22.334 1 -35.001 1c-50.667 0 -114.667 -7 -192 -21c-53.333 -10 -94.333 -25 -123 -45
c-31.333 -21.333 -58.666 -54.5 -81.999 -99.5s-35 -93.167 -35 -144.5c0 -14.667 0.666992 -28.334 2 -41.001c8.66699 -78.667 39.334 -135.334 92.001 -170.001c43.333 -28.667 107.333 -44.667 192 -48c76 -2.66699 127.667 -7 155 -13
c69.333 -14.667 106 -43.334 110 -86.001c3.33301 -39.333 -18 -65.666 -64 -78.999c-26.667 -8 -64.667 -11.667 -114 -11c-14.667 0 -30.667 -0.666992 -48 -2c-30 6 -74.667 12.667 -134 20c-10.667 1.33301 -21 2 -31 2c-54.667 0 -88 -23.333 -100 -70
c-4 -16 -6 -30.667 -6 -44c0 -33.333 11.667 -60 35 -80c29.333 -25.333 61 -40.666 95 -45.999c23.333 -2.66699 58 -6.33398 104 -11.001c21.333 -2.66699 54 -1 98 5c97.333 12.667 168.666 27.667 213.999 45c16 6 33.333 15.333 52 28c10.667 7.33301 26 19.333 46 36
c11.333 9.33301 23.833 33.5 37.5 72.5s19.5 75.167 17.5 108.5z" />
    <glyph glyph-name="T" unicode="T" horiz-adv-x="862" 
d="M756 579c-41.333 -18.667 -93.002 -27.998 -155.002 -27.998c-20.667 0 -42.667 1 -66 3c24.667 -208 41 -365.667 49 -473c6 -82.667 9 -130.334 9 -143.001c-3.33301 -67.333 -22 -107.666 -56 -120.999c-23.333 -6.66699 -46.666 -10.334 -69.999 -11.001
c-26 -0.666992 -50 5.66602 -72 18.999c-24 15.333 -37 35.333 -39 60c-3.33301 38 -5 85 -5 141c-0.666992 87.333 -0.666992 161 0 221c0.666992 78 -0.333008 137.333 -3 178l-8 123c-65.333 -7.33301 -114.333 -10 -147 -8c-22.667 1.33301 -43 4.33301 -61 9
c-28 14 -46.667 27 -56 39c-17.333 17.333 -26 36.333 -26 57c0 23.333 8.66699 47 26 71s43 38.333 77 43c106.667 15.333 207.334 23.666 302.001 24.999c30.667 0.666992 90.667 1.33398 180 2.00098c55.333 0.666992 96 -5 122 -17c52.667 -24 79 -62.333 79 -115
c0 -26 -26.667 -51 -80 -75z" />
    <glyph glyph-name="U" unicode="U" horiz-adv-x="916" 
d="M836 68c-7.33301 -138 -81.668 -220 -223.001 -246c-50.667 -9.33301 -96 -14 -136 -14c-82 0 -158.333 23.667 -229 71c-56 37.333 -90.667 89.333 -104 156c-6 30 -14.333 99.667 -25 209l-26 266c-3.33301 34 -5 66 -5 96c0 53.333 6 92.666 18 117.999
c18.667 38.667 50 57.334 94 56.001c49.333 -2 82.333 -20 99 -54c10 -20 16.667 -60 20 -120c2.66699 -40.667 2.66699 -104 0 -190c-2 -83.333 -1.33301 -146.666 2 -189.999c5.33301 -72 14 -119 26 -141c23.333 -42.667 70.333 -67 141 -73
c28.667 -2.66699 56.5 6.5 83.5 27.5s43.833 79.5 50.5 175.5l9 201c2.66699 56 1.66699 128.667 -3 218c-4.66699 88 24.333 136 87 144c10 1.33301 19 2 27 2c44.667 0 78.334 -17.667 101.001 -53c19.333 -30 29 -68.333 29 -115c0 -18.667 -1.33301 -36.334 -4 -53.001
c-10.667 -67.333 -18 -149 -22 -245z" />
    <glyph glyph-name="V" unicode="V" horiz-adv-x="893" 
d="M861 670c-1.33301 64.667 -22.332 108.004 -62.999 130.004c-9.33301 5.33301 -21 8 -35 8c-15.333 0 -31.333 -3 -48 -9c-36.667 -13.333 -64.334 -44.666 -83.001 -93.999c-14.667 -38 -28.334 -95.667 -41.001 -173c-17.333 -104 -28 -164 -32 -180
c-45.333 -196.667 -84.666 -289.334 -117.999 -278.001c0 -6 -0.666992 -9 -2 -9c-3.33301 0 -9.66602 14.333 -18.999 43c-32.667 100.667 -53.667 168 -63 202c-20.667 76.667 -33.667 146 -39 208c-12 151.333 -42 240 -90 266c-24.667 13.333 -51.667 18.333 -81 15
c-52 -6.66699 -84.333 -38 -97 -94c-2.66699 -10.667 -4.66699 -33.334 -6 -68.001c-2 -46 8.33301 -104.333 31 -175c53.333 -166 107.666 -303 162.999 -411c12.667 -26.667 32.667 -66.667 60 -120c22 -40.667 43.667 -70.334 65 -89.001
c26 -22.667 59 -36.334 99 -41.001c24 -2.66699 44 1 60 11c7.33301 4.66699 22.666 18.667 45.999 42c54.667 79.333 101 169.666 139 270.999l68 183c22 58.667 41 118 57 178c20.667 78 30.334 139.333 29.001 184z" />
    <glyph glyph-name="W" unicode="W" horiz-adv-x="1054" 
d="M613 587c-5.33301 33.333 -11.667 59.667 -19 79c-12.667 32.667 -25.667 55.667 -39 69c-17.333 18 -41.333 27.333 -72 28c-60.667 1.33301 -102 -56 -124 -172c-13.333 -70.667 -24.333 -159.667 -33 -267c-4.66699 -61.333 -17 -137.666 -37 -228.999
c0 -6.66699 -1 -10 -3 -10c-2.66699 0 -4 8.66699 -4 26l-15 120c-2.66699 22.667 -8 100.334 -16 233.001c-5.33301 90 -12.666 155.333 -21.999 196c-20.667 91.333 -56 137 -106 137c-14 0 -29 -4.33301 -45 -13c-30.667 -16.667 -47.334 -47.334 -50.001 -92.001
c-2.66699 -40.667 1.33301 -116 12 -226c12.667 -129.333 23.667 -223 33 -281c6.66699 -40 15.334 -89.333 26.001 -148c12 -56 26.333 -104.333 43 -145c9.33301 -23.333 29.333 -45.333 60 -66c18.667 -12.667 38.667 -19 60 -19c13.333 0 26.666 2.33301 39.999 7
c34.667 12 58.334 26.667 71.001 44c24 32 42.667 107.667 56 227c8 71.333 14.667 121 20 149c6.66699 34.667 16.334 120 29.001 256c9.33301 -94 17 -164.333 23 -211c10 -83.333 21 -153.333 33 -210c26 -123.333 59 -201 99 -233c26 -20.667 45.667 -32.667 59 -36
c14 -4 33.667 -3 59 3c60 13.333 110 114 150 302c36 171.333 60 345 72 521c3.33301 47.333 -3.66699 86.666 -21 117.999c-20.667 38 -53.334 57 -98.001 57c-50.667 0 -86.334 -48.667 -107.001 -146c-6.66699 -34.667 -13.334 -103.667 -20.001 -207l-16 -246
c-5.33301 -70.667 -9.66602 -115 -12.999 -133c-0.666992 -6 -2 -9 -4 -9c-4.66699 0 -9 20 -13 60c-1.33301 14.667 -3.66602 36.667 -6.99902 66c-2 4 -5 25.667 -9 65c-0.666992 6.66699 -8.33398 55.667 -23.001 147z" />
    <glyph glyph-name="X" unicode="X" horiz-adv-x="773" 
d="M671 -195c-13.333 -6 -32.3301 -6.00488 -56.9971 -0.00488281s-42.667 18 -54 36c-39.333 59.333 -86.666 149.333 -141.999 270c-13.333 28 -24 48 -32 60l-44 -124c-11.333 -46.667 -30.666 -115.667 -57.999 -207c-10.667 -30 -41 -45 -91 -45
c-28.667 0 -54 9.66699 -76 29s-33 43.333 -33 72c0 14.667 3.33301 30.667 10 48c13.333 34.667 38 90.334 74 167.001l61 130c8.66699 18.667 13 32.667 13 42c0 11.333 -6.33301 26.333 -19 45l-74 105c-28.667 41.333 -51 77.666 -67 108.999
c-32 60.667 -51 101.667 -57 123c-4 12.667 -6 24.667 -6 36c0 23.333 8.33301 44 25 62c23.333 26.667 55 40 95 40c61.333 0 105 -51.333 131 -154c7.33301 -28.667 17 -55.667 29 -81c5.33301 -11.333 29 -70.666 71 -177.999c35.333 70 63.166 138.167 83.499 204.5
s36.166 110.5 47.499 132.5c28 52.667 63 77 105 73c37.333 -3.33301 66.666 -22.333 87.999 -57c13.333 -21.333 20 -41.666 20 -60.999c0 -13.333 -2.66699 -25.666 -8 -36.999c-12 -25.333 -19.667 -43.666 -23 -54.999l-95 -170l-48 -73
c-23.333 -35.333 -35 -59.666 -35 -72.999c0 -8 1.66699 -15.667 5 -23c11.333 -24.667 29.666 -53 54.999 -85c46 -57.333 75.667 -95.333 89 -114c37.333 -52.667 59 -93.667 65 -123c4 -21.333 6.66699 -42.333 8 -63c1.33301 -22.667 -17.334 -43 -56.001 -61z" />
    <glyph glyph-name="Y" unicode="Y" horiz-adv-x="830" 
d="M662 187c-35.333 -43.333 -84.6631 -65 -147.996 -65c-10 0 -20.333 0.666992 -31 2c1.33301 -42.667 5 -85.667 11 -129l17 -109c2 -18 -1.66699 -35.333 -11 -52s-22 -27.334 -38 -32.001s-36.667 -6 -62 -4c-45.333 4 -68.666 43.667 -69.999 119
c-0.666992 43.333 -6.66699 111 -18 203c-58.667 -2 -107.834 11.5 -147.501 40.5s-66.167 71.5 -79.5 127.5c-6.66699 29.333 -18.667 115.666 -36 258.999c-5.33301 44.667 -8 82.334 -8 113.001c0 60.667 10.333 98.334 31 113.001
c29.333 20.667 57.666 30.334 84.999 29.001c66 -4 101.667 -42.667 107 -116c2 -36.667 6.33301 -103.667 13 -201c1.33301 -18 3 -45.333 5 -82c4 -63.333 23.667 -101.666 59 -114.999c12 -4.66699 30.333 -7.33398 55 -8.00098c64.667 -2 102 26 112 84
c3.33301 20 4.66602 52.333 3.99902 97c-0.666992 32.667 -2 93.667 -4 183c-2.66699 78 14.333 125 51 141c29.333 12.667 55.666 19 78.999 19c45.333 0 77.666 -22.333 96.999 -67c14.667 -33.333 21 -75.333 19 -126c-2.66699 -76 -10 -149.667 -22 -221
c-16.667 -98.667 -40 -166.334 -70 -203.001z" />
    <glyph glyph-name="Z" unicode="Z" horiz-adv-x="806" 
d="M351 800c-50 5.33301 -101.328 1.33984 -153.995 -11.9932c-64.667 -16.667 -105 -43.334 -121 -80.001c-10 -22.667 -15 -43.334 -15 -62.001c0 -20.667 6 -39 18 -55l33 -27c40.667 -16.667 92.334 -26.334 155.001 -29.001c31.333 -1.33301 58.666 -2 81.999 -2
c6.66699 0.666992 25.667 1.66699 57 3s47.666 1.33301 48.999 0l-87 -129c-9.33301 -14 -23 -33 -41 -57v-2c-0.666992 0 -1 -0.333008 -1 -1h-2c0 2 0.666992 3 2 3c-80.667 41.333 -128.667 63 -144 65c-9.33301 1.33301 -26.666 3.66602 -51.999 6.99902
c-18 2.66699 -38.667 -4.33301 -62 -21c-18 -13.333 -27 -27.666 -27 -42.999c0 -5.33301 1 -11 3 -17c11.333 -34.667 40 -60.334 86 -77.001l48 -23c7.33301 -4.66699 29 -15.334 65 -32.001l-87 -117c-34.667 -48 -60.334 -88.667 -77.001 -122c-6 -12 -9 -25.333 -9 -40
c0 -18 4.33301 -38 13 -60c16 -40 64.667 -63.333 146 -70c37.333 -3.33301 92.5 -1.5 165.5 5.5s127.167 8.83301 162.5 5.5c24 -2 60 3.66699 108 17c40.667 11.333 61 35 61 71c0 22.667 -4.66699 43 -14 61c-10.667 21.333 -26 35 -46 41c-12.667 4 -31.334 6 -56.001 6
c-33.333 0 -73.666 -3.33301 -120.999 -10c-86.667 -12 -151.334 -18.667 -194.001 -20c17.333 30.667 31.666 55 42.999 73c18 23.333 42.667 59.333 74 108v2c1.33301 -5.33301 10.666 -12 27.999 -20l91 -42c40.667 -18.667 70.667 -28.334 90 -29.001
c27.333 -0.666992 51 19.333 71 60c2 4 2.66699 13.333 2 28s-7.66699 28.667 -21 42c-16.667 13.333 -75.334 44.333 -176.001 93c50.667 70.667 99.667 148 147 232c38 67.333 57 119.666 57 156.999c0 12 -2 22.333 -6 31c-17.333 38.667 -45.333 62.667 -84 72
c-14.667 3.33301 -54 6.33301 -118 9c-78 2.66699 -125.333 5 -142 7z" />
    <glyph glyph-name="bracketleft" unicode="[" horiz-adv-x="365" 
d="M364 711c5.33301 37.333 -11.666 62.9971 -50.999 76.9971c-26 9.33301 -60.667 13.333 -104 12c-112 -3.33301 -166.667 -16 -164 -38c-30 -224 -45 -413 -45 -567c0 -192 11 -308.333 33 -349c16 -29.333 53.667 -44.666 113 -45.999
c55.333 -1.33301 93.666 -0.666016 114.999 2.00098c64.667 8 97 33.333 97 76c0 16.667 -4.66699 35 -14 55c-36.667 4 -91.334 9.33301 -164.001 16c-3.33301 76.667 -5 153.334 -5 230.001c0 159.333 7 320 21 482c24.667 -4.66699 49 -7 73 -7s48 2.33301 72 7
c12.667 16 20.334 32.667 23.001 50z" />
    <glyph glyph-name="backslash" unicode="\" horiz-adv-x="368" 
d="M299 153l42.0029 -145.002c18 -67.333 27 -116.333 27 -147c0 -46.667 -18.667 -70 -56 -70c-8.66699 0 -16.667 3 -24 9c-12.667 10 -25 24.5 -37 43.5s-19.333 35.833 -22 50.5c-4.66699 28 -19.334 78 -44.001 150c-26.667 76.667 -43.334 130.334 -50.001 161.001
c-23.333 104 -57 224.667 -101 362c-22.667 70.667 -34 125 -34 163c0 36.667 11 58.334 33 65.001c11.333 3.33301 21 5 29 5c26.667 0 46 -14 58 -42c27.333 -62.667 48.666 -121.667 63.999 -177z" />
    <glyph glyph-name="bracketright" unicode="]" horiz-adv-x="363" 
d="M1 -112c-4.66699 -37.333 12.335 -62.6689 51.002 -76.002c25.333 -9.33301 59.666 -13.333 102.999 -12c112 3.33301 166.333 16 163 38c30.667 222 46 410.667 46 566c0 192.667 -11.333 309.334 -34 350.001c-16.667 30 -54.334 45.333 -113.001 46
c-56 0.666992 -94 -0.333008 -114 -3c-51.333 -6.66699 -82 -23 -92 -49c-3.33301 -8.66699 -5 -18 -5 -28c0 -16.667 5 -34.334 15 -53.001l163 -17c3.33301 -76 5 -151.667 5 -227c0 -161.333 -7.33301 -322.666 -22 -483.999c-24 4.66699 -48.667 7 -74 7
c-22.667 0 -46 -2 -70 -6c-12.667 -17.333 -20 -34.666 -22 -51.999z" />
    <glyph glyph-name="asciicircum" unicode="^" horiz-adv-x="391" 
d="M327 537c-28 0 -57.999 23.999 -89.999 71.999l-42 64c-28 -50 -45.333 -79.667 -52 -89c-27.333 -38.667 -53.333 -58.334 -78 -59.001c-22.667 -0.666992 -36.334 10 -41.001 32c-3.33301 16.667 2 38.667 16 66l37 60c40 66.667 78 100 114 100
c31.333 0 65 -19.333 101 -58c27.333 -29.333 50 -62.666 68 -99.999c9.33301 -19.333 14 -35.666 14 -48.999c0 -26 -15.667 -39 -47 -39z" />
    <glyph glyph-name="underscore" unicode="_" horiz-adv-x="432" 
d="M419 -141c4.66699 14.667 5.66699 26.333 3 35c-2 6.66699 -5.33301 12.334 -10 17.001c-12 12 -53 18.667 -123 20c-75.333 1.33301 -128 0 -158 -4c-77.333 -10.667 -116 -35.334 -116 -74.001c0 -26.667 31.333 -43 94 -49c36.667 -2.66699 78 -2 124 2l115 11
c40 3.33301 63.667 17.333 71 42z" />
    <glyph glyph-name="grave" unicode="`" horiz-adv-x="200" 
d="M101 788c25.333 -2.66699 41.999 -25.667 49.999 -69c4.66699 -25.333 6.33398 -57.333 5.00098 -96c-0.666992 -22.667 -3 -47 -7 -73c-6 -6 -16.333 -10 -31 -12c-22.667 -3.33301 -41.667 25.334 -57 86.001c-11.333 44 -17.333 82.667 -18 116c0 5.33301 1 10 3 14
c12.667 25.333 31 36.666 55 33.999z" />
    <glyph glyph-name="a" unicode="a" horiz-adv-x="740" 
d="M272 677c-7.33301 -2.66699 -19.001 -7.66797 -35.001 -15.001c-3.33301 -2 -8 -4 -14 -6c-23.333 -9.33301 -41 -33.333 -53 -72c-3.33301 -11.333 -5 -21 -5 -29c0 -27.333 12 -51.333 36 -72s49.667 -31 77 -31c8.66699 0 16 0.666992 22 2
c37.333 8 67.333 9.66699 90 5c23.333 -4.66699 43.333 -22.667 60 -54c10 -18.667 15 -42.334 15 -71.001c0 -18 -2 -39 -6 -63c0 -1.33301 -1 -8.66602 -3 -21.999l-28 21c-41.333 24.667 -93 37 -155 37c-14.667 0 -26.667 -0.333008 -36 -1
c-62.667 -4.66699 -115.667 -28 -159 -70s-65 -94 -65 -156c0 -92.667 39 -166 117 -220c26.667 -18.667 61 -29 103 -31c46 -2.66699 92 4 138 20c52.667 18 90.667 43.333 114 76l10 20c20.667 -48 45 -74.333 73 -79c8 -1.33301 15.667 -2 23 -2c30.667 0 54 13 70 39
c3.33301 5.33301 5 13 5 23c0 22 -9.66699 48.333 -29 79c-16.667 26.667 -25 74 -25 142c0 32.667 2 69.334 6 110.001c12.667 130.667 16.334 212.667 11.001 246c-4.66699 29.333 -17 60 -37 92c-14 23.333 -39.833 44.833 -77.5 64.5s-70.167 29.5 -97.5 29.5h-68
c-32 0.666992 -57.667 -3.33301 -77 -12zM242.999 -15.001c-13.333 0 -25.666 3.33301 -36.999 10c-23.333 13.333 -33 38.666 -29 75.999c4 42.667 33.333 64 88 64c32 0 54 -17 66 -51c4 -11.333 6 -21 6 -29c0 -21.333 -10.667 -38.666 -32 -51.999
c-18.667 -12 -39.334 -18 -62.001 -18z" />
    <glyph glyph-name="b" unicode="b" horiz-adv-x="711" 
d="M124 759c-49.333 -10 -77.001 -42.998 -83.001 -98.998c-2 -18.667 -5 -88 -9 -208c-5.33301 -162.667 5.33398 -290.667 32.001 -384c42 -148.667 125 -230.334 249 -245.001c22 -2.66699 42.333 -4 61 -4c105.333 0 187 36 245 108c44 54.667 66 108 66 160
c0 29.333 -7 58.666 -21 87.999c-38.667 80.667 -110.667 128.334 -216 143.001c-18.667 2.66699 -34.334 4 -47.001 4c-83.333 0 -145.666 -36 -186.999 -108c32 159.333 48 277.666 48 354.999c0 22 -0.333008 36.333 -1 43c-11.333 114 -57 163 -137 147zM317.999 51.002
c-10 12.667 -11.002 29.6689 -3.00195 51.002c5.33301 14.667 17 27.667 35 39s35 17 51 17c20.667 0 39.334 -9.66699 56.001 -29c7.33301 -8.66699 9.33301 -26.334 6 -53.001c-3.33301 -24.667 -15.166 -42.834 -35.499 -54.501s-41.833 -12.5 -64.5 -2.5
s-37.667 20.667 -45 32z" />
    <glyph glyph-name="c" unicode="c" horiz-adv-x="671" 
d="M619 523c-13.333 109.333 -106.668 166 -280.001 170c-132 3.33301 -217.667 -28.334 -257 -95.001c-22.667 -38.667 -39 -106.667 -49 -204c-7.33301 -76.667 -9.33301 -148 -6 -214c8.66699 -170.667 63.667 -277 165 -319c71.333 -29.333 137 -43 197 -41
c26.667 0.666992 71.334 9 134.001 25c56.667 26 85 60 85 102c0 16 -3 31.667 -9 47c-18 46 -55 69 -111 69c-18 0 -44.167 -4.16699 -78.5 -12.5s-60.5 -12.5 -78.5 -12.5c-62 0 -102.667 31.333 -122 94c-15.333 49.333 -23 93.333 -23 132
c0 28.667 4.33301 55.334 13 80.001c30.667 88.667 89 133 175 133c37.333 0 80.333 -8 129 -24c24.667 -8 44.667 -12 60 -12c38 0 57 20.667 57 62c0 8 -0.333008 14.667 -1 20z" />
    <glyph glyph-name="d" unicode="d" horiz-adv-x="765" 
d="M690 693c-28 32.667 -58.668 49 -92.001 49c-8 0 -15.667 -0.666992 -23 -2c-44 -8.66699 -72 -30 -84 -64c-5.33301 -15.333 -8 -49.333 -8 -102c0 -72 4.66699 -182.667 14 -332c-83.333 64 -161.333 96 -234 96c-30.667 0 -61 -6 -91 -18
c-81.333 -32.667 -122 -101.667 -122 -207c0 -18.667 1.66699 -40.667 5 -66c18.667 -144.667 123.667 -221 315 -229c119.333 -5.33301 204 28.334 254 101.001c36.667 52.667 59.334 138.667 68.001 258l21 293c6 37.333 9 70.666 9 99.999
c0 56.667 -10.667 97.667 -32 123zM286.999 22c-24.667 20 -36.999 40.668 -36.999 62.001c0 16 6.33301 32 19 48c16.667 21.333 36.667 32 60 32c20.667 0 42.667 -7.33301 66 -22c29.333 -18.667 44 -38.334 44 -59.001c0 -16 -9.33301 -33 -28 -51
c-23.333 -22 -46 -33 -68 -33c-18.667 0 -37.334 7.66699 -56.001 23z" />
    <glyph glyph-name="e" unicode="e" horiz-adv-x="674" 
d="M642 481c-1.33301 113.333 -64.002 184.001 -188.002 212.001c-42 9.33301 -81.333 14 -118 14c-70 0 -127 -18.667 -171 -56c-87.333 -60.667 -131 -166.334 -131 -317.001c0 -36.667 2 -72.667 6 -108c23.333 -208.667 75 -335 155 -379
c48.667 -26.667 97.667 -40 147 -40c32 0 64.333 5.33301 97 16c84.667 27.333 124.667 70.333 120 129c-3.33301 47.333 -21.666 71 -54.999 71c-10 0 -19.333 -1.33301 -28 -4c-49.333 -15.333 -98.666 -20.333 -147.999 -15c-41.333 4 -73.666 35 -96.999 93
c-14.667 36.667 -22 70 -22 100c0 11.333 1 22.333 3 33c65.333 -28.667 124.666 -43 177.999 -43c51.333 0 96.666 14 135.999 42c78.667 56 117.334 140 116.001 252zM333.998 516.001c14 6 26 9 36 9c27.333 0 48 -17.333 62 -52c9.33301 -22.667 14 -42 14 -58
c0 -16.667 -5.33301 -29.667 -16 -39c-20 -18 -46.667 -26 -80 -24c-22 1.33301 -41.167 9.5 -57.5 24.5s-24.833 33.5 -25.5 55.5c-1.33301 36.667 21 64.667 67 84z" />
    <glyph glyph-name="f" unicode="f" horiz-adv-x="669" 
d="M646 62c10.667 22 16 44 16 66c0 10.667 -1.66699 22.334 -5 35.001c-9.33301 34 -49 51.333 -119 52c-71.333 0.666992 -131 -6.66602 -179 -21.999c-4.66699 59.333 -9.33398 129.666 -14.001 210.999c-4.66699 88 21 132.333 77 133c90 1.33301 135 32.666 135 93.999
c0 10.667 -1.66699 22 -5 34c-13.333 46 -36.666 75.667 -69.999 89c-24 9.33301 -63.333 12 -118 8c-65.333 -4.66699 -120.333 -34.334 -165 -89.001c-34 -41.333 -51 -96 -51 -164c0 -24 1.33301 -45.333 4 -64c15.333 -110.667 26.333 -199.334 33 -266.001
c-32 -2.66699 -64 -5 -96 -7c-39.333 -8 -62.666 -25.333 -69.999 -52c-4.66699 -12 -7 -23.333 -7 -34c0 -40 22.333 -66.667 67 -80c24 -7.33301 46 -11 66 -11c18 0 34.667 3 50 9c-4.66699 -121.333 18.666 -185.666 69.999 -192.999
c32 -4.66699 55.167 -3.66699 69.5 3s28.5 24 42.5 52c5.33301 14.667 8 37.334 8 68.001c0 24.667 -1.66699 54.334 -5 89.001c61.333 -6 117 -9.33301 167 -10c49.333 -0.666992 82.333 15.666 99 48.999z" />
    <glyph glyph-name="g" unicode="g" horiz-adv-x="649" 
d="M283 696c-154 -22.667 -237.669 -100.334 -251.002 -233.001c-7.33301 -72 2 -129.667 28 -173c28 -45.333 76.333 -77.666 145 -96.999c26 -7.33301 53 -11 81 -11c58.667 0 115 19 169 57c8.66699 -51.333 10.334 -104 5.00098 -158
c-4.66699 -52.667 -22.334 -89.667 -53.001 -111c-18 -12.667 -35 -19 -51 -19c-14 0 -28 4.66699 -42 14c-30 20 -48.333 51.667 -55 95c-5.33301 33.333 -28 50 -68 50c-10 0 -21 -1 -33 -3c-59.333 -10 -87.333 -44.333 -84 -103c4 -62 20.5 -109 49.5 -141
s74.5 -52 136.5 -60c14.667 -2 30.334 -3 47.001 -3c86.667 0 156.667 31 210 93c50.667 58.667 76.334 132 77.001 220l1 134c1.33301 26 3.33301 81.333 6 166c3.33301 95.333 -25.667 170 -87 224c-47.333 42 -106 63 -176 63c-18.667 0 -37 -1.33301 -55 -4z
M264.998 517c40 4 70.667 -11.332 92 -45.999c10 -16 15 -31.667 15 -47c0 -16.667 -6 -31.667 -18 -45c-24 -26.667 -55.667 -38.667 -95 -36c-40 3.33301 -59 32.666 -57 87.999c1.33301 53.333 22.333 82 63 86z" />
    <glyph glyph-name="h" unicode="h" horiz-adv-x="740" 
d="M558 317c-15.333 9.33301 -42.667 17 -82 23c-12.667 2 -25 3 -37 3c-80.667 0 -160 -48.333 -238 -145c6 148.667 9.66699 254 11 316c0.666992 28 0.666992 54.333 0 79l-1 61c0 33.333 -19 57.666 -57 72.999c-15.333 6 -29.333 9 -42 9
c-22.667 0 -44.667 -7.33301 -66 -22c-34.667 -24 -51.667 -70 -51 -138c0.666992 -52 4.33398 -118.667 11.001 -200l16 -199c5.33301 -62 8.66602 -98.667 9.99902 -110c0 -15.333 1 -35.666 3 -60.999c2.66699 -30 2.66699 -69 0 -117
c-1.33301 -29.333 11.667 -51.666 39 -66.999c22 -12 49 -18 81 -18c56.667 0 93 36 109 108c11.333 51.333 21.333 90.333 30 117c17.333 52.667 37 87 59 103c14 10.667 35 17.667 63 21c26 3.33301 48.333 -25.334 67 -86.001
c5.33301 -16.667 21.666 -83.334 48.999 -200.001c12.667 -36 36.667 -54 72 -54c69.333 0 104 42.333 104 127c0 18.667 -1.33301 40.334 -4 65.001c-6 57.333 -20.333 114.666 -43 171.999c-29.333 74.667 -63.666 121.334 -102.999 140.001z" />
    <glyph glyph-name="i" unicode="i" horiz-adv-x="351" 
d="M182 469c42 -1.33301 78.002 19.335 108.002 62.002c10.667 15.333 16 35.666 16 60.999c0 16.667 -2 35.334 -6 56.001c-10.667 55.333 -40 86.666 -88 93.999c-12.667 2 -27 3 -43 3c-40.667 0 -70.834 -10 -90.501 -30s-32.834 -50.667 -39.501 -92
c-2.66699 -16 -4 -29.333 -4 -40c0 -27.333 7 -49 21 -65c12 -13.333 31.667 -26 59 -38c14.667 -6.66699 37 -10.334 67 -11.001zM181.002 333.001c-36.667 -8 -60.334 -50.665 -71.001 -127.998c-2 -14 -5.33301 -69.333 -10 -166c-3.33301 -63.333 -3.33301 -104 0 -122
c7.33301 -47.333 30 -77 68 -89c16.667 -5.33301 33 -8 49 -8c16.667 0 32.334 3.33301 47.001 10c27.333 12 41.666 35.667 42.999 71c0.666992 21.333 -1.66602 53.166 -6.99902 95.499s-7.66602 74.166 -6.99902 95.499c2.66699 52 1 96.667 -5 134
c-10 64 -29.333 99 -58 105c-16.667 2.66699 -29.334 4 -38.001 4c-6 0 -9.66699 -0.666992 -11 -2z" />
    <glyph glyph-name="j" unicode="j" horiz-adv-x="581" 
d="M527 694c-22.667 36.667 -54.333 55.333 -95 56c-48 0.666992 -87.333 -15.666 -118 -48.999c-20.667 -22.667 -31 -46.667 -31 -72c0 -12.667 2.66699 -26.334 8 -41.001c24 -66.667 71 -97 141 -91c32.667 2.66699 59.667 17 81 43s32 55.667 32 89
c0 24 -6 45.667 -18 65zM534.001 246.999c2 54.667 -1.66895 94.335 -11.002 119.002c-14.667 39.333 -45 59.333 -91 60c-49.333 1.33301 -79.666 -25 -90.999 -79c-6 -29.333 -6 -75.333 0 -138c4.66699 -46 5.66699 -79.667 3 -101
c-5.33301 -46 -23.666 -70.667 -54.999 -74h-63c-24.667 0 -51.667 6.66699 -81 20c-13.333 6 -26.666 9 -39.999 9s-26 -3 -38 -9c-28.667 -14.667 -43 -39.334 -43 -74.001c0 -66.667 45 -115.334 135 -146.001c55.333 -18.667 104.666 -26 147.999 -22
c46.667 4 83.334 11.667 110.001 23c37.333 15.333 64.666 39.5 81.999 72.5s27 83.833 29 152.5z" />
    <glyph glyph-name="k" unicode="k" horiz-adv-x="733" 
d="M643 477l-148.004 -193.995c-39.333 -52 -77.333 -99.333 -114 -142l148 -61c57.333 -30.667 84 -69.667 80 -117c-3.33301 -40.667 -20.666 -68.334 -51.999 -83.001c-8.66699 -4 -18 -6 -28 -6c-30 0 -71.333 16 -124 48l-144 87
c-2.66699 -58.667 -4 -96.334 -4 -113.001c0.666992 -36.667 -19 -62.667 -59 -78c-20.667 -8 -38.667 -12 -54 -12c-16.667 0 -30.667 4.33301 -42 13c-26.667 21.333 -41 53.333 -43 96v113c-2 94 -7 197 -15 309c-8 115.333 -10.667 203.333 -8 264
c2.66699 59.333 11 98.666 25 117.999c18.667 26 55.334 37.333 110.001 34c48.667 -2.66699 75.334 -51.334 80.001 -146.001c4 -82 6 -154.333 6 -217v-132c3.33301 6.66699 10 18 20 34l37 55l123 201c61.333 94.667 113 141 155 139
c44.667 -2 77.334 -19.667 98.001 -53c6.66699 -10.667 10 -22.334 10 -35.001c0 -31.333 -19 -72 -57 -122z" />
    <glyph glyph-name="l" unicode="l" horiz-adv-x="347" 
d="M176 739c-12 4 -22.666 6.00098 -31.999 6.00098c-30 0 -53.333 -15.667 -70 -47c-21.333 -40.667 -31 -87 -29 -139c3.33301 -80.667 7 -151.667 11 -213c4.66699 -71.333 10.667 -141.666 18 -210.999l15 -147c6 -56.667 16.333 -97 31 -121
c15.333 -32 36.666 -48 63.999 -48c16 0 34.333 5.66699 55 17c7.33301 9.33301 13.833 23.666 19.5 42.999s7.5 34.666 5.5 45.999c0 50 1 102.667 3 158c3.33301 90 2.33301 187.333 -3 292c0 28 -0.666992 69.667 -2 125c-3.33301 142 -32 221.667 -86 239z" />
    <glyph glyph-name="m" unicode="m" horiz-adv-x="1090" 
d="M908 604c-32.667 16 -71.333 23.6719 -116 23.0049c-40.667 -0.666992 -78 -14.667 -112 -42c-31.333 -24.667 -55.666 -57 -72.999 -97c-16 57.333 -48 95.666 -96 114.999c-34.667 14 -65.334 21 -92.001 21c-20.667 0 -39.334 -3.66699 -56.001 -11
c-41.333 -18 -71 -39.333 -89 -64c2 4 3 12.333 3 25c0 33.333 -8.33301 64.333 -25 93c-19.333 34 -44.666 51 -75.999 51c-7.33301 0 -13 -0.333008 -17 -1c-43.333 -6.66699 -73.666 -22.667 -90.999 -48c-11.333 -16.667 -17 -44 -17 -82c0 -18.667 1.33301 -39 4 -61
c25.333 -212 34.333 -375.667 27 -491c-0.666992 -10.667 -1 -21.334 -1 -32.001c0 -93.333 30.333 -152.666 91 -177.999c11.333 -4.66699 22 -7 32 -7c33.333 0 57 19.333 71 58c10.667 28 14.667 61 12 99c-4 62 -5 126.333 -3 193c2.66699 76 7.66699 129.333 15 160
c16.667 68 49 102 97 102c37.333 0 63.666 -25.333 78.999 -76c10.667 -35.333 15.334 -76 14.001 -122c-2 -68.667 -4.66699 -133.334 -8 -194.001c-2.66699 -48 4.66602 -90.333 21.999 -127c21.333 -46 54 -69 98 -69c10 0 18.333 0.666992 25 2
c42 8 65.667 35.333 71 82c9.33301 79.333 14.666 175.666 15.999 288.999c0.666992 80 12.667 137.333 36 172c12.667 18.667 24.667 28 36 28c12 0 23.667 -9.33301 35 -28c24 -38 35 -99 33 -183c-2 -90.667 -4.33301 -163.334 -7 -218.001
c-2.66699 -59.333 14.666 -99.333 51.999 -120c19.333 -10.667 38 -16 56 -16c16.667 0 32.667 4.33301 48 13c28 16 42 66.667 42 152c0 16 -0.333008 31 -1 45c-6 127.333 -10.333 205.666 -13 234.999c-7.33301 80.667 -15.666 138 -24.999 172
c-19.333 69.333 -51.666 115 -96.999 137z" />
    <glyph glyph-name="n" unicode="n" horiz-adv-x="825" 
d="M423 390c48 -4.66699 80.166 -16.166 96.499 -34.499s25.166 -51.833 26.499 -100.5c1.33301 -41.333 -0.333984 -104 -5.00098 -188c-3.33301 -66 -1.33301 -115 6 -147c13.333 -56 45 -86.667 95 -92c62.667 -6.66699 98.334 34 107.001 122
c0.666992 9.33301 1.66699 45.666 3 108.999s-1.66699 150.333 -9 261c-8 125.333 -41.667 208.666 -101 249.999c-42.667 30 -92.334 45 -149.001 45c-19.333 0 -43 -2.66699 -71 -8c-88 -16.667 -145.667 -37.667 -173 -63c2 12.667 3 25.334 3 38.001
c0 17.333 -1.66699 35.333 -5 54c-7.33301 31.333 -28.666 49 -63.999 53c-68.667 7.33301 -110.667 -18.334 -126 -77.001c-7.33301 -27.333 -6.33301 -92 3 -194c10.667 -120 15.334 -194.333 14.001 -223l-8 -142c-2 -35.333 -3 -67.666 -3 -96.999
c0 -82 37.333 -121.667 112 -119c66 2.66699 96.333 60 91 172c-2 24 -4.33301 60.333 -7 109c-3.33301 79.333 3.33398 141 20.001 185c22.667 58.667 63.667 88 123 88c6.66699 0 13.667 -0.333008 21 -1z" />
    <glyph glyph-name="o" unicode="o" horiz-adv-x="748" 
d="M397 660c-124 6 -211.331 -18.334 -261.998 -73.001c-28.667 -30.667 -49.667 -68.334 -63 -113.001c-7.33301 -23.333 -15.666 -66.333 -24.999 -129c-2 -13.333 -3 -30 -3 -50c0 -43.333 5.33301 -99.666 16 -168.999c11.333 -75.333 24.333 -129.666 39 -162.999
c19.333 -44 51.666 -80 96.999 -108c40 -24 95.333 -38 166 -42c65.333 -3.33301 124.666 8.66699 177.999 36c56.667 28.667 98.5 70.834 125.5 126.501s40.5 114.5 40.5 176.5c0 16.667 -0.666992 31.667 -2 45c-10.667 104 -18.334 168.667 -23.001 194
c-26 141.333 -80.333 225.666 -163 252.999c-24 8 -64.333 13.333 -121 16zM506.002 164.999c1.33301 -18 1.99805 -30.666 1.99805 -37.999c0 -54.667 -17.333 -93.334 -52 -116.001c-27.333 -18 -55 -27 -83 -27c-16 0 -31.667 3 -47 9
c-43.333 16.667 -67.333 61.334 -72 134.001c-3.33301 50.667 -5.66602 113.334 -6.99902 188.001c-0.666992 58 7.33301 99.333 24 124c20 29.333 57.667 43.666 113 42.999c41.333 -0.666992 71.333 -24.334 90 -71.001c10.667 -28 18.334 -69 23.001 -123z" />
    <glyph glyph-name="p" unicode="p" horiz-adv-x="689" 
d="M587 677c-8.66699 8.66699 -21.666 17.333 -38.999 26c-46 23.333 -95.333 34.666 -148 33.999c-75.333 -1.33301 -154 -26.333 -236 -75c-34 -20.667 -62.333 -58 -85 -112c-18 -44.667 -29.333 -91.667 -34 -141c-4.66699 -51.333 -7 -97 -7 -137v-127
c0 -45.333 4 -105.333 12 -180c3.33301 -30.667 8 -65 14 -103c2 -12.667 9.66699 -25.334 23 -38.001c18 -16.667 38.333 -25 61 -25c5.33301 0 10.666 0.666992 15.999 2c16.667 4 25.667 6.66699 27 8l22 22c16 15.333 23.333 51 22 107
c-1.33301 54.667 -14.666 147.334 -39.999 278.001c61.333 -13.333 119.666 -20 174.999 -20c36.667 0 63.667 1.33301 81 4c22 4 47.667 13 77 27c38 18 71 44.333 99 79c26.667 32.667 40 83.334 40 152.001c0 94 -26.667 167 -80 219zM454.001 443.999
c0 -24 -12.002 -44.334 -36.002 -61.001c-21.333 -15.333 -44.666 -23 -69.999 -23c-20 0 -36.667 9.33301 -50 28c-12.667 16.667 -19 35.334 -19 56.001c0 24 10.333 43.667 31 59c18.667 14.667 40.334 21.667 65.001 21c52.667 -2 79 -28.667 79 -80z" />
    <glyph glyph-name="q" unicode="q" horiz-adv-x="639" 
d="M435 197c0 -28.667 -2.16699 -71.4971 -6.5 -128.497s-6.5 -99.833 -6.5 -128.5c0 -18.667 8.33301 -45.334 25 -80.001c13.333 -28 21 -43 23 -45c-2.66699 0 6 -2.66699 26 -8c32.667 -3.33301 58.667 4 78 22c12 11.333 19.333 24.333 22 39
c16.667 94.667 25 186 25 274v122l5 162c2 55.333 -5 107.666 -21 156.999c-20.667 66.667 -52.667 104.667 -96 114c-51.333 11.333 -93.333 18 -126 20c-103.333 7.33301 -191.333 -9.66699 -264 -51c-34 -19.333 -59 -46.333 -75 -81
c-12 -26.667 -20.667 -63.334 -26 -110.001c-4.66699 -42 -4 -77 2 -105c6.66699 -30 21.667 -61.333 45 -94c33.333 -46.667 82.333 -74 147 -82c78 -9.33301 152.333 -8.33301 223 3zM385 441.003c-2.66699 -26 -12.332 -48.001 -28.999 -66.001s-37.667 -25.667 -63 -23
c-24 2 -44 9.66699 -60 23c-18 14.667 -27 33.667 -27 57c0 24 8.83301 44.333 26.5 61s38.5 25.334 62.5 26.001c25.333 0.666992 47.166 -6 65.499 -20s26.5 -33.333 24.5 -58z" />
    <glyph glyph-name="r" unicode="r" horiz-adv-x="621" 
d="M267 450c7.33301 56.667 4.99902 114 -7.00098 172c-10 46.667 -43.333 70 -100 70c-11.333 0 -24 -1 -38 -3c-18.667 1.33301 -40 -11 -64 -37c-16 -17.333 -24 -48.666 -24 -93.999c0 -21.333 2 -47 6 -77c7.33301 -54 15 -134.667 23 -242s15.333 -186.833 22 -238.5
s13.667 -85.834 21 -102.501c12.667 -27.333 36.667 -49.666 72 -66.999c6.66699 -3.33301 14.667 -5 24 -5c16.667 0 35.334 7 56.001 21c25.333 17.333 38 61.666 38 132.999c0 18 -1.16699 44.833 -3.5 80.5s-3.5 62.5 -3.5 80.5c0 64.667 8.33301 107.334 25 128.001
c43.333 54 117 85.333 221 94c46.667 3.33301 67.667 33.666 63 90.999c-4 56.667 -41.333 87.667 -112 93s-143.667 -27 -219 -97z" />
    <glyph glyph-name="s" unicode="s" horiz-adv-x="785" 
d="M165 657c-38 -22.667 -68.9971 -62.665 -92.9971 -119.998c-18.667 -45.333 -28 -91 -28 -137c0 -74 21.333 -131.667 64 -173c33.333 -32.667 96 -50.334 188 -53.001c77.333 -2.66699 121.333 -4.66699 132 -6c62 -9.33301 94.333 -31.333 97 -66
c2 -24 -10 -45.333 -36 -64c-22 -16 -46.333 -26 -73 -30c-18.667 -3.33301 -35.334 -3.33301 -50.001 0c-77.333 16 -136.333 24 -177 24c-26 0 -45.333 -4 -58 -12c-14.667 -9.33301 -25.667 -26.333 -33 -51c-2.66699 -9.33301 -4 -17.666 -4 -24.999
c0 -50.667 49.333 -87.334 148 -110.001c49.333 -11.333 85 -17.333 107 -18c19.333 -0.666992 45.333 0.333008 78 3l79 6c11.333 0.666992 42.666 8 93.999 22c28.667 8 57.667 31 87 69c28 36 44.667 69.333 50 100c4 23.333 6 45.333 6 66
c0 59.333 -16.333 107.666 -49 144.999c-18 20.667 -47.333 40 -88 58c-34.667 15.333 -68.667 26.333 -102 33c-13.333 2.66699 -55.333 4.33398 -126 5.00098c-52 0.666992 -91.667 9.66699 -119 27c-20.667 12.667 -29.334 26.667 -26.001 42
c0 15.333 1.66699 31.333 5 48c1.33301 19.333 16 35.666 44 48.999c10 4.66699 24.333 7 43 7c32.667 0 77 -8 133 -24c46.667 -13.333 83.667 -20 111 -20c24.667 0 41 5.66699 49 17c16 22.667 25.333 54.667 28 96c2 40 -9.33301 65.667 -34 77
c-86 39.333 -172.333 59 -259 59c-76 0 -138.667 -14.667 -188 -44z" />
    <glyph glyph-name="t" unicode="t" horiz-adv-x="756" 
d="M638 363c-10 1.33301 -28 3.33008 -54 5.99707c-19.333 2 -37 2 -53 0c-4 -0.666992 -8.66699 -1 -14 -1c-10 0 -23 1.33301 -39 4l7 144c1.33301 25.333 3.33301 60 6 104c6 94.667 -25 145.334 -93 152.001c-48.667 4.66699 -81 -10.666 -97 -45.999
c-10 -22 -14.667 -61 -14 -117c0.666992 -42.667 1.66699 -122.667 3 -240c-52 -4.66699 -93.333 -5.66699 -124 -3c-36 3.33301 -70.333 -6.66699 -103 -30c-21.333 -15.333 -32 -36 -32 -62c0 -14 2.33301 -28.333 7 -43c19.333 -58.667 64.666 -88 135.999 -88
c35.333 0 77.666 6 126.999 18c1.33301 -127.333 3 -211 5 -251c2 -36 4.66699 -58.667 8 -68c8 -20.667 24.667 -34.334 50 -41.001c7.33301 -2 16.333 -3 27 -3c26.667 0 48 10.333 64 31c14.667 18.667 22 41.667 22 69s1.33301 74.333 4 141c2 56.667 3 104 3 142
c44.667 -2.66699 82 -4 112 -4c46.667 0 75 3 85 9c22.667 12.667 37.667 23.334 45 32.001c10.667 12.667 16.334 30.334 17.001 53.001c0.666992 27.333 -6 46 -20 56c-35.333 24 -63.666 36 -84.999 36z" />
    <glyph glyph-name="u" unicode="u" horiz-adv-x="804" 
d="M744 -43c0 14.667 -2.66895 28.332 -8.00195 40.999c-12.667 30 -26 96.667 -40 200c-7.33301 53.333 -11 105 -11 155c0 18 1.66699 45 5 81s5 63 5 81c0 66 -28.333 104 -85 114c-8 1.33301 -16.333 2 -25 2c-52 0 -79.333 -33 -82 -99c-0.666992 -54 -2 -135 -4 -243
c-2 -82 -8.33301 -138.667 -19 -170c-20 -60 -61 -90 -123 -90c-65.333 0 -101 26 -107 78c-4.66699 42 -5.66699 120 -3 234c2 89.333 1.66699 146.333 -1 171c-9.33301 80.667 -36 122.667 -80 126c-78 6 -119 -33.333 -123 -118c-4.66699 -92.667 -4 -160.667 2 -204
c2.66699 -21.333 6.33398 -76 11.001 -164c4 -67.333 11.333 -121.666 22 -162.999c15.333 -56.667 50.333 -98.334 105 -125.001c46 -22 101 -31.333 165 -28c72.667 4 132 18.667 178 44c30.667 16.667 45.334 36.334 44.001 59.001c6.66699 -31.333 28 -53 64 -65
c13.333 -4.66699 26.333 -7 39 -7c22.667 0 40.667 9.66699 54 29c11.333 16.667 17 37 17 61z" />
    <glyph glyph-name="v" unicode="v" horiz-adv-x="795" 
d="M654 677c-16.667 0 -34.9961 -7.66602 -54.9961 -22.999c-28.667 -22 -56.334 -73.333 -83.001 -154l-56 -178c-6.66699 -21.333 -17 -57.333 -31 -108c-12 -45.333 -25.333 -80 -40 -104c-22 31.333 -43.667 88 -65 170l-45 184l-27 107
c-10.667 38 -23.334 64.667 -38.001 80c-18.667 19.333 -45.667 27 -81 23c-22 -2.66699 -41.167 -11.167 -57.5 -25.5s-26.833 -32.166 -31.5 -53.499c-1.33301 -6.66699 -3 -26.334 -5 -59.001c-2 -36.667 7.66699 -90.667 29 -162
c3.33301 -11.333 21.333 -64.333 54 -159c52.667 -152.667 103 -266.334 151 -341.001c17.333 -27.333 54.666 -43.666 111.999 -48.999c34 -3.33301 65.667 10.667 95 42c49.333 74 87 146.667 113 218c8 21.333 34.333 76.666 79 165.999c33.333 66.667 55 123.667 65 171
c12 58 17.667 96.333 17 115c-1.33301 24 -9 49 -23 75c-24.667 43.333 -50.334 65 -77.001 65z" />
    <glyph glyph-name="w" unicode="w" horiz-adv-x="992" 
d="M473 -59l-1.99414 -11.001c-11.333 -62.667 -51.333 -97.667 -120 -105c-32 -3.33301 -59.333 -4.66602 -82 -3.99902c-86 2.66699 -140 62.667 -162 180c-16.667 88.667 -27 155.667 -31 201l-13 147c-9.33301 105.333 -14 160.333 -14 165c0 74 38.333 108.333 115 103
c35.333 -2.66699 59.666 -13.334 72.999 -32.001c11.333 -16.667 17 -95.667 17 -237c0 -84 6.33301 -165.333 19 -244c4.66699 -30 21.334 -45 50.001 -45c28 0 44.667 15.667 50 47c0.666992 3.33301 2.66699 35 6 95c3.33301 58.667 3 138 -1 238
c-4.66699 110.667 14 169.334 56 176.001c58 8.66699 96.667 -2 116 -32c14 -22.667 21 -66 21 -130c0 -229.333 16 -360.666 48 -393.999c10 -10 21.333 -15 34 -15c10 0 20.333 3 31 9c29.333 16 45.666 63.667 48.999 143c0.666992 12.667 -1 66.334 -5 161.001
c-2.66699 71.333 -3.66699 115.666 -3 132.999c3.33301 72 16.666 112.667 39.999 122c12 2.66699 32 5 60 7s50.333 -12.667 67 -44c12.667 -24.667 19 -52.667 19 -84c0 -24.667 -2 -71.334 -6 -140.001c-4 -65.333 -2.66699 -123.666 4 -174.999
c3.33301 -29.333 9.66602 -82.333 18.999 -159c2.66699 -23.333 4 -44 4 -62c0 -63.333 -17.333 -94.333 -52 -93c-11.333 0.666992 -26 2 -44 4c-24.667 9.33301 -40 34.333 -46 75c-8.66699 -30 -19.334 -50.333 -32.001 -61c-20.667 -16.667 -49.334 -29 -86.001 -37
s-67.334 -8.33301 -92.001 -1c-24 7.33301 -40 12.666 -48 15.999c-10.667 2 -23 13.667 -37 35c-12.667 19.333 -20 35.333 -22 48z" />
    <glyph glyph-name="x" unicode="x" horiz-adv-x="815" 
d="M708 409l-178.999 -203.001c51.333 -52.667 88.333 -91.667 111 -117c50.667 -56.667 82 -100.334 94 -131.001c4.66699 -15.333 5 -35.333 1 -60c-3.33301 -23.333 -22.666 -44.333 -57.999 -63c-14.667 -8 -28.334 -12 -41.001 -12c-20 0 -38.667 8.66699 -56 26
c-27.333 27.333 -85.333 100 -174 218l-132 -178c-28 -37.333 -60 -57.666 -96 -60.999c-36 -2.66699 -64 16.666 -84 57.999c-7.33301 15.333 -11 31 -11 47c0 26.667 10.667 54.334 32 83.001c39.333 52.667 97.333 116.667 174 192c-70 72 -134.667 157.333 -194 256
c-24.667 41.333 -37 77.333 -37 108c0 25.333 8 47 24 65c23.333 26.667 48.333 40 75 40c14 0 28.333 -3.66699 43 -11c35.333 -17.333 76.333 -66.333 123 -147l98 -176l112 147c49.333 64.667 90.666 107.334 123.999 128.001c10.667 6.66699 21.667 10 33 10
c22.667 0 45 -14 67 -42c11.333 -14.667 17 -31 17 -49c0 -36 -22 -78.667 -66 -128z" />
    <glyph glyph-name="y" unicode="y" horiz-adv-x="679" 
d="M434 607c-4 -15.333 -6.00293 -46.9941 -6.00293 -94.9941c0.666992 -54 -1.66602 -91.667 -6.99902 -113c-8 -24 -16 -40.667 -24 -50c-10 -12 -25.333 -20.333 -46 -25c-24 0 -38.667 0.333008 -44 1c-20.667 2.66699 -37.334 6.33398 -50.001 11.001
c-29.333 11.333 -42 47.666 -38 108.999c2 30 3 62 3 96c0 2 -0.666992 17 -2 45c0 3.33301 -0.333008 17.666 -1 42.999c-0.666992 28 -19.334 47.667 -56.001 59c-13.333 4 -24 6 -32 6c-21.333 0 -38.666 -8.33301 -51.999 -25c-21.333 -26 -31.333 -53 -30 -81
c1.33301 -17.333 3.33301 -48.666 6 -93.999c1.33301 -19.333 3.33301 -54 6 -104c2 -40.667 4.33301 -65 7 -73c4.66699 -39.333 14.334 -71.333 29.001 -96c11.333 -20 22.333 -33 33 -39c6 -4.66699 13 -9 21 -13c12.667 -6.66699 35.334 -13.834 68.001 -21.501
s57 -11.834 73 -12.501c74.667 -2.66699 126 7.33301 154 30c20.667 16.667 32 26.334 34 29.001c0 -4.66699 -1 -12 -3 -22c-1.33301 -28.667 -6.66602 -62 -15.999 -100c-6.66699 -26.667 -16.5 -44.834 -29.5 -54.501s-34.833 -16.834 -65.5 -21.501
c-26.667 0 -47.667 -0.333008 -63 -1c-8 -0.666992 -29.667 8.66602 -65 27.999c-6 4.66699 -18.333 12.667 -37 24c-8.66699 5.33301 -19.334 8 -32.001 8c-42 0 -65.667 -21.333 -71 -64c-3.33301 -24.667 -1 -48 7 -70c21.333 -58.667 78 -96.334 170 -113.001
c36.667 -6 71 -8.66699 103 -8c70.667 1.33301 122.334 19.666 155.001 54.999c26 28 45.667 72.667 59 134c6 28.667 13 78 21 148c2 20.667 5.33301 48 10 82c18.667 146.667 26.667 241.667 24 285l-12 128c-2 20 -8 35 -18 45c-10.667 7.33301 -29.334 15 -56.001 23
c-9.33301 2.66699 -19 4 -29 4c-20.667 0 -43 -5.66699 -67 -17c-11.333 -15.333 -21.666 -42 -30.999 -80z" />
    <glyph glyph-name="z" unicode="z" horiz-adv-x="779" 
d="M468 492c-7.33301 2.66699 -29.666 5.33496 -66.999 8.00195c-58.667 4.66699 -130 4.66699 -214 0c-38.667 6.66699 -62.334 15.667 -71.001 27c-16.667 35.333 -25 64.666 -25 87.999c0 19.333 5.66699 34.333 17 45c22 24.667 67.667 37.667 137 39
c52 0.666992 146 2.66699 282 6c68.667 2.66699 111.334 0.333984 128.001 -6.99902c29.333 -12.667 51.333 -46.334 66 -101.001c2 -7.33301 3 -15.333 3 -24c0 -46.667 -32 -104.667 -96 -174l-115 -129l179 -81c43.333 -19.333 65 -45.666 65 -78.999
c0 -30.667 -8.33301 -52.334 -25 -65.001l-41 -23c-2.66699 -1.33301 -6.33398 -2 -11.001 -2c-32 0 -87 20 -165 60c-36.667 18.667 -69 36 -97 52c-6.66699 -11.333 -21.334 -32 -44.001 -62l-36 -48h-1v0v-1l-6 -6c27.333 -1.33301 114 -10.333 260 -27
c34.667 -4 53.334 -24.333 56.001 -61c4 -57.333 -24 -88.333 -84 -93c-24 -2 -60 -3.66699 -108 -5c-206.667 -6.66699 -322.334 13 -347.001 59c-11.333 20.667 -17 39 -17 55c0 9.33301 1.66699 18 5 26c12.667 31.333 37.667 71.666 75 120.999l92 112l-204 77
c-24 12 -37 33.333 -39 64c-1.33301 27.333 7.66699 49.333 27 66s43.333 26 72 28c26.667 2 94.334 -26.667 203.001 -86l33 -18l86 122c15.333 22 24.333 34.333 27 37z" />
    <glyph glyph-name="braceleft" unicode="{" horiz-adv-x="438" 
d="M306 -200c85.333 0.666992 126.999 20.0029 124.999 58.0029c-1.33301 27.333 -13.666 45.333 -36.999 54l-64 18c-22.667 11.333 -34.334 35.666 -35.001 72.999c0 37.333 0.333008 74.666 1 111.999c-1.33301 44.667 -7 81 -17 109c-14 36 -37.333 63.667 -70 83
c31.333 37.333 48.666 70 51.999 98c2 17.333 3.33301 62.666 4 135.999c0.666992 66.667 21 100 61 100c4 0 9.83301 -0.5 17.5 -1.5s13.5 -1.5 17.5 -1.5c38.667 0 63.334 23.667 74.001 71c2 8.66699 3 17.667 3 27c0 42.667 -30.333 64 -91 64
c-50 0 -97.667 -17.333 -143 -52c-54 -41.333 -80.333 -154 -79 -338c-32.667 -5.33301 -60.334 -17 -83.001 -35c-28 -20.667 -42 -46 -42 -76c0 -10 1.33301 -19.333 4 -28c10 -32 27.333 -49.667 52 -53c10.667 -1.33301 29.334 -4 56.001 -8
c15.333 -2 26 -2.33301 32 -1c10 -24.667 11.333 -58 4 -100c-5.33301 -30.667 -8 -61.667 -8 -93c0 -38.667 4.66699 -77 14 -115c16.667 -68 67.334 -101.667 152.001 -101z" />
    <glyph glyph-name="bar" unicode="|" horiz-adv-x="331" 
d="M182 790c-14 6.66699 -27.334 9.99902 -40.001 9.99902c-24 0 -42.333 -13.333 -55 -40c-19.333 -39.333 -27 -118.333 -23 -237c4 -128.667 13.333 -276 28 -442c5.33301 -62 7.33301 -110.333 6 -145c6 -60.667 15 -96.667 27 -108
c3.33301 -3.33301 10 -8.66602 20 -15.999c0 -3.33301 11 -7.33301 33 -12c7.33301 -2.66699 13.666 -4 18.999 -4c12.667 0 25.334 5.33301 38.001 16c18.667 15.333 28.667 54.333 30 117c2 86.667 2.66699 141.334 2 164.001c-0.666992 18.667 -4.66699 103.667 -12 255
c-5.33301 105.333 -7.66602 190.666 -6.99902 255.999c0.666992 102.667 -21.333 164.667 -66 186z" />
    <glyph glyph-name="braceright" unicode="}" horiz-adv-x="438" 
d="M131 800c-84.667 -0.666992 -126.333 -19.668 -125 -57.001c1.33301 -28 13 -45.5 35 -52.5s43.667 -13.5 65 -19.5c23.333 -11.333 35.333 -35.666 36 -72.999l4 -167c1.33301 -58.667 28.666 -104.667 81.999 -138c-35.333 -40.667 -53.666 -87 -54.999 -139
c0 -21.333 -0.333008 -53.666 -1 -96.999c-0.666992 -65.333 -20.667 -98 -60 -98c-4 0 -9.66699 0.5 -17 1.5s-13 1.5 -17 1.5c-40 0 -65.333 -25.333 -76 -76c-1.33301 -6.66699 -2 -14 -2 -22c-0 -42.667 30.333 -64 91 -64c48 0 96 18 144 54
c52.667 39.333 79 151 79 335c30 6 57.333 18.333 82 37c28 22 42 47 42 75c0 9.33301 -1.66699 19 -5 29c-10.667 32.667 -27.667 50.334 -51 53.001l-56 7c-16 2 -26.667 3 -32 3c-10.667 22.667 -12 55.667 -4 99c5.33301 29.333 8 58.666 8 87.999
c0 38.667 -5 78.667 -15 120c-16 67.333 -66.667 100.666 -152 99.999z" />
    <glyph glyph-name="asciitilde" unicode="~" horiz-adv-x="463" 
d="M309 554c-18.667 0 -43.666 11.668 -74.999 35.001c-26.667 34 -52.334 51 -77.001 51c-14.667 0 -26 -18 -34 -54c-6 -26 -19.667 -39 -41 -39c-27.333 0 -41 22 -41 66c0 26.667 10.333 58 31 94c22.667 40 46.667 60 72 60c14.667 0 32 -9 52 -27l46 -42
c7.33301 -6.66699 20.333 -14.334 39 -23.001h12c4 1.33301 10.333 3 19 5c4.66699 4 10.167 12.333 16.5 25s10.166 22.667 11.499 30c5.33301 30.667 18.333 46 39 46c14.667 0 26.334 -7.33301 35.001 -22c7.33301 -12 11 -26 11 -42c0 -36 -8 -69.333 -24 -100
c-14 -27.333 -38.333 -46.333 -73 -57z" />
    <glyph glyph-name="yen" unicode="&#xa5;" horiz-adv-x="680" 
d="M605 33c14 8 21.002 17.0049 21.002 27.0049c0 32.667 -41.667 49 -125 49c-8 0 -28.333 -1 -61 -3c-11.333 0 -27 -1 -47 -3c0 5.33301 -0.333008 13.166 -1 23.499s-1 18.166 -1 23.499c83.333 6 136.166 19.667 158.499 41s38.5 73.666 48.5 156.999
c10.667 92.667 16.667 163.334 18 212.001c2.66699 104.667 -22.333 162.334 -75 173.001c-10 2 -19.667 3 -29 3c-64 0 -94.667 -48.667 -92 -146l5 -170c0.666992 -34.667 -0.666016 -61.667 -3.99902 -81c-6.66699 -35.333 -21 -54.666 -43 -57.999
c-14 -2 -33.667 -4.33301 -59 -7s-46.333 4.33301 -63 21s-23.667 37.667 -21 63c0 2 -2 29.667 -6 83l-11 187c-4.66699 66 -32.667 101 -84 105c-24 2 -47.333 -6.33301 -70 -25c-15.333 -12.667 -23 -46.334 -23 -101.001c0 -26.667 2.33301 -62.334 7 -107.001l24 -229
c4.66699 -46.667 26.667 -81 66 -103c27.333 -15.333 68.666 -25.333 123.999 -30c0.666992 -8.66699 1.66699 -20.667 3 -36c-12 0 -48.667 -0.666992 -110 -2c-32 -0.666992 -54.667 -2.66699 -68 -6c-28.667 -8.66699 -37.667 -25 -27 -49c6 -13.333 31 -22 75 -26
c36 -3.33301 64.667 -3.33301 86 0c27.333 1.33301 42.666 -0.166992 45.999 -4.5s6 -19.5 8 -45.5h-49c-118 3.33301 -177 -9 -177 -37c0 -12.667 6 -23.334 18 -32.001c10 -7.33301 21.667 -11 35 -11h81l95 3c2 -23.333 5.66699 -40.333 11 -51
c6 -18.667 20 -29.334 42 -32.001c20 -2 36.667 -1.33301 50 2c28 16 40.667 41.667 38 77c28 1.33301 49 1.66602 63 0.999023c22.667 -0.666992 51.334 0 86.001 2c46.667 2.66699 70 17.667 70 45c0 17.333 -15 28 -45 32c-41.333 5.33301 -77 7.33301 -107 6
c-34.667 -2 -60.667 -3.66699 -78 -5c-0.666992 6 -1.66699 12.667 -3 20l-5 32c27.333 -2.66699 51 -4 71 -4s36.333 1.33301 49 4c35.333 -4.66699 63.666 -0.666992 84.999 12z" />
    <glyph glyph-name="copyright" unicode="&#xa9;" horiz-adv-x="828" 
d="M758 255c3.33301 21.333 3.33398 62.667 0.000976562 124c-2.66699 51.333 -22.667 99.833 -60 145.5s-81 76.5 -131 92.5c-64 20.667 -122.667 31 -176 31c-71.333 0 -134.333 -17.333 -189 -52c-68.667 -43.333 -110.334 -104.333 -125.001 -183
c-8 -42.667 -12 -83.334 -12 -122.001c0 -35.333 3 -69.333 9 -102c24 -129.333 110.333 -207.666 259 -234.999c25.333 -4.66699 50.333 -7 75 -7c46.667 0 94 8 142 24c72.667 24 122 56.667 148 98c20 32 34 62 42 90c4.66699 18 10.667 50 18 96zM275.001 483.001
c6 0 11.333 -1.66895 16 -5.00195c10 -10 15 -21.667 15 -35c0 -2.66699 -0.666992 -6.33398 -2 -11.001s-2 -7.66699 -2 -9s-0.666992 -2.66602 -2 -3.99902c-5.33301 -9.33301 -14.666 -14.666 -27.999 -15.999c-2 0.666992 -5 2.33398 -9 5.00098
c-4.66699 11.333 -9.33398 24 -14.001 38c4 24.667 12.667 37 26 37zM222.001 176.999l-0.00390625 18.999c0 6 1.33301 11.667 4 17c0.666992 1.33301 1.66699 2 3 2c2.66699 0 7 -3 13 -9c0 -0.666992 2 -6.83398 6 -18.501s6.33301 -17.834 7 -18.501
c2.66699 -13.333 13 -28.333 31 -45c28 -25.333 65.667 -42 113 -50c17.333 -2.66699 39 -2.66699 65 0c18.667 2 33.334 7 44.001 15c32 23.333 50.667 59.333 56 108c0.666992 4.66699 2.66699 13 6 25l3 4c1.33301 0.666992 3.33301 1 6 1
c0.666992 -0.666992 1.33398 -1 2.00098 -1c10 -15.333 14.667 -26.666 14 -33.999c0 -33.333 -8.66699 -63.166 -26 -89.499s-41.666 -45.166 -72.999 -56.499c-13.333 -5.33301 -28.333 -8.33301 -45 -9c-23.333 -1.33301 -37.666 -2.33301 -42.999 -3
c-28 0 -57 6.33301 -87 19c-32 14 -56 31.667 -72 53c-18 24 -27 47.667 -27 71zM538.997 407.998c-1.33301 12.667 -1.99902 22.333 -1.99902 29c-1.33301 11.333 3 20.333 13 27c4 3.33301 8 5 12 5c4.66699 0 9.16699 -2.5 13.5 -7.5s8.16602 -10.833 11.499 -17.5
c0 -1.33301 0.333008 -3.33301 1 -6c4 -11.333 4.33301 -20 1 -26c-6 -11.333 -14.667 -19.333 -26 -24c-16 4 -24 10.667 -24 20zM451.998 316.997c-2.66699 14 -8.66699 21.3359 -18 22.0029c-3.33301 1.33301 -6.33301 2 -9 2c-10 0 -18 -8.33301 -24 -25
c-2.66699 -4.66699 -5 -11.334 -7 -20.001c0 -4.66699 -1.33301 -11.334 -4 -20.001c-0.666992 -4.66699 -3.66699 -10.667 -9 -18c-1.33301 -1.33301 -3 -2 -5 -2c-2.66699 0 -6.66699 1.33301 -12 4c-4.66699 19.333 -3 39.666 5 60.999c11.333 31.333 29.333 47 54 47
c18 0 32.667 -5.66699 44 -17c13.333 -33.333 19 -56.666 17 -69.999c-3.33301 -14 -8 -21 -14 -21c-4 1.33301 -6 3.66602 -6 6.99902c-3.33301 9.33301 -7.33301 26 -12 50z" />
    <glyph glyph-name="registered" unicode="&#xae;" horiz-adv-x="780" 
d="M748 258c3.33301 21.333 3.33496 62.666 0.00195312 123.999c-2.66699 51.333 -22.834 99.833 -60.501 145.5s-81.167 76.5 -130.5 92.5c-64 20.667 -122.667 31 -176 31c-70.667 0 -133.667 -17.333 -189 -52c-68.667 -43.333 -110.334 -104 -125.001 -182
c-8 -42.667 -12 -83.667 -12 -123c0 -35.333 3 -69.333 9 -102c24 -129.333 110.333 -207.666 259 -234.999c25.333 -4.66699 50.333 -7 75 -7c46 0 93 8 141 24c52 17.333 93.167 40.5 123.5 69.5s52.833 68.5 67.5 118.5c4.66699 16 10.667 48 18 96zM265.002 487
c9.33301 0 16.833 -4.33496 22.5 -13.002s8.5 -18 8.5 -28c0 -4 -0.666992 -8 -2 -12l-4 -12c-6 -9.33301 -15.333 -14.666 -28 -15.999c-2.66699 0.666992 -5.66699 2.33398 -9 5.00098c-5.33301 12 -10.333 25 -15 39c4.66699 24.667 13.667 37 27 37zM212.002 179.998
l0.00292969 19c0 6 1.33301 11.667 4 17c0.666992 1.33301 1.66699 2 3 2c2.66699 0 7 -3 13 -9c-0.666992 -0.666992 1.16602 -6.66699 5.49902 -18s6.5 -17.666 6.5 -18.999c3.33301 -14 13.666 -29 30.999 -45c27.333 -25.333 65.333 -42 114 -50
c18.667 -3.33301 40.334 -3.33301 65.001 0c17.333 2 31.666 7 42.999 15c32 22.667 51 58.667 57 108c0 2.66699 1.66699 11 5 25l4 4c1.33301 0.666992 3 1 5 1c1.33301 -0.666992 2.33301 -1 3 -1c10 -15.333 14.333 -26.666 13 -33.999c0 -24 -4.66699 -47 -14 -69
c-14.667 -34.667 -43 -60 -85 -76c-20 -7.33301 -49 -11.333 -87 -12c-28 -0.666992 -57.667 5.66602 -89 18.999s-55 30.666 -71 51.999c-2.66699 4 -6.33398 10 -11.001 18c-10 20 -15 37.667 -15 53zM529.005 410.998c-2 12.667 -3 22.335 -3 29.002
c-1.33301 10.667 3 19.667 13 27c16 11.333 28.333 4.66602 37 -20.001c0 -1.33301 0.666992 -3 2 -5c4 -11.333 4.33301 -20.333 1 -27c-6 -11.333 -14.667 -19 -26 -23c-16 3.33301 -24 9.66602 -24 18.999zM442.005 319.999c-2.66699 14 -9 21.666 -19 22.999
c-2.66699 0.666992 -5.33398 1 -8.00098 1c-10 0 -18.333 -8.33301 -25 -25c-2.66699 -4 -4.66699 -10.667 -6 -20c0 -3.33301 -2.66699 -14.333 -8 -33c-1.33301 -1.33301 -2.83301 -2.66602 -4.5 -3.99902s-3.5 -2 -5.5 -2c-2.66699 0 -7 1 -13 3c-4 18.667 -2 39 6 61
c11.333 31.333 29 47 53 47c18.667 0 33.334 -5.33301 44.001 -16c12.667 -16 19 -34.333 19 -55c0 -12 -2.33301 -22.333 -7 -31c-1.33301 -4 -4 -6 -8 -6c-4 2 -6 4.33301 -6 7c-3.33301 9.33301 -7.33301 26 -12 50z" />
    <glyph glyph-name="apple" unicode="&#xf000;" horiz-adv-x="704" 
d="M396 691c-3.33301 0 -7.66699 -1.00098 -13 -3.00098c-19.333 -4 -35.666 -15.667 -48.999 -35c-14.667 -21.333 -22 -45.666 -22 -72.999c0 -18 3.33301 -35.667 10 -53c15.333 5.33301 25.666 9.33301 30.999 12c15.333 8 28.5 22.167 39.5 42.5s16.5 39.5 16.5 57.5
c-0.666992 34.667 -5 52 -13 52zM342.999 452.999c-10.667 -18.667 -18.999 -38.6719 -24.999 -60.0049c-2.66699 29.333 -6.66699 49 -12 59c-9.33301 24 -24.666 44.333 -45.999 61c-8 6 -24.333 11.667 -49 17c-23.333 4.66699 -43 3.33398 -59 -3.99902
c-12 -4 -26 -12.333 -42 -25s-26.667 -24.334 -32 -35.001c-24.667 -49.333 -38.334 -93.333 -41.001 -132c-2 -25.333 -2 -53.666 0 -84.999c2 -37.333 3.66699 -61.333 5 -72c5.33301 -49.333 21 -107 47 -173c10 -25.333 26 -46.666 48 -63.999s46 -24.666 72 -21.999
c9.33301 2 14.333 3 15 3c6.66699 0 21.667 9 45 27c19.333 15.333 33 27 41 35c18 21.333 34.333 56.666 49 105.999c2.66699 -2.66699 5 -6.33398 7 -11.001c29.333 -71.333 73.333 -118.666 132 -141.999c11.333 -4.66699 25.333 -7 42 -7c10 -1.33301 18.667 2 26 10
c6 2.66699 10 5.33398 12 8.00098c21.333 14.667 39.666 47.334 54.999 98.001c7.33301 22.667 13 49.334 17 80.001c1.33301 2.66699 1.33301 6 0 10c-4.66699 -4.66699 -9.66699 -9 -15 -13c-14 -10.667 -29 -17.334 -45 -20.001c-43.333 -8 -85.666 9.33301 -126.999 52
c-20 20.667 -28.333 45 -25 73c0 64.667 19.667 109.334 59 134.001c8.66699 5.33301 16.667 8.33301 24 9c16.667 1.33301 31.334 -4.66699 44.001 -18c9.33301 -10 18.666 -24.667 27.999 -44c8 -16 12.667 -31.333 14 -46c48 39.333 72 82.333 72 129
c0 53.333 -13.667 91 -41 113c-7.33301 7.33301 -17.666 14 -30.999 20c-26.667 8.66699 -50.334 13 -71.001 13c-38.667 0 -79.334 -8.33301 -122.001 -25c-25.333 -10 -49 -29.667 -71 -59z" />
    <glyph glyph-name=".null" horiz-adv-x="0" 
 />
    <glyph glyph-name="nonmarkingreturn" horiz-adv-x="338" 
 />
  </font>
</defs>
</svg>
